<svg id="Layer_1" data-name="Layer 1" xmlns="http://www.w3.org/2000/svg" viewBox="0 0 468.97 491.03"><defs><style>.cls-1{fill:#27382e;}.cls-2{fill:#fbfbfb;}.cls-3{fill:#f9fbf9;}.cls-4{fill:#fbfbfa;}.cls-5{fill:#f8faf8;}.cls-6{fill:#fafbfa;}.cls-7{fill:#3b3326;}.cls-8{fill:#f7f9f7;}.cls-9{fill:#f7f9f8;}.cls-10{fill:#f7faf8;}.cls-11{fill:#f8faf9;}.cls-12{fill:#3c3427;}.cls-13{fill:#f3f6f3;}.cls-14{fill:#f6f8f6;}.cls-15{fill:#f4eadd;}.cls-16{fill:#9b8464;}.cls-17{fill:#f6faf7;}.cls-18{fill:#f0e8de;}.cls-19{fill:#383a2d;}.cls-20{fill:#f1f5f2;}.cls-21{fill:#cbc2b5;}.cls-22{fill:#e5e1d6;}.cls-23{fill:#cad0c7;}.cls-24{fill:#979483;}.cls-25{fill:#b2ac9d;}.cls-26{fill:#dce1df;}.cls-27{fill:#cfc4af;}.cls-28{fill:#e6e1d8;}.cls-29{fill:#dce2e0;}.cls-30{fill:#aab7ae;}.cls-31{fill:#857967;}.cls-32{fill:#9b9a8b;}.cls-33{fill:#ccd6ce;}.cls-34{fill:#dadfdc;}.cls-35{fill:#cdc1af;}.cls-36{fill:#717973;}.cls-37{fill:#ab9686;}.cls-38{fill:#ecf5ef;}.cls-39{fill:#5d5142;}.cls-40{fill:#c3b7a4;}.cls-41{fill:#c2c2b6;}.cls-42{fill:#ac9f90;}.cls-43{fill:#acb7af;}.cls-44{fill:#919590;}.cls-45{fill:#626b66;}.cls-46{fill:#cad8cf;}.cls-47{fill:#a7a99b;}.cls-48{fill:#c9d5cd;}.cls-49{fill:#7d8280;}.cls-50{fill:#949485;}.cls-51{fill:#94a098;}.cls-52{fill:#94a39a;}.cls-53{fill:#5b635d;}.cls-54{fill:#cbd6ce;}.cls-55{fill:#b7c2bb;}.cls-56{fill:#90907f;}.cls-57{fill:#948d7c;}.cls-58{fill:#818171;}.cls-59{fill:#737974;}.cls-60{fill:#e5e1d5;}.cls-61{fill:#94a299;}.cls-62{fill:#d2cfc3;}.cls-63{fill:#aca79a;}.cls-64{fill:#7e8173;}.cls-65{fill:#a4a496;}.cls-66{fill:#96a39a;}.cls-67{fill:#a8afa3;}.cls-68{fill:#a3b2a8;}.cls-69{fill:#6c716f;}.cls-70{fill:#929588;}.cls-71{fill:#7f8d84;}.cls-72{fill:#85948b;}.cls-73{fill:#8c9d93;}.cls-74{fill:#312c20;}.cls-75{fill:#3b2d22;}.cls-76{fill:#33362b;}.cls-77{fill:#2f2a1e;}.cls-78{fill:#715b47;}.cls-79{fill:#7e6e59;}.cls-80{fill:#867866;}.cls-81{fill:#403222;}.cls-82{fill:#816b5a;}.cls-83{fill:#392d1e;}.cls-84{fill:#453d2c;}.cls-85{fill:#787878;}.cls-86{fill:#646764;}.cls-87{fill:#362f24;}.cls-88{fill:#332c20;}.cls-89{fill:#423122;}.cls-90{fill:#2e3025;}.cls-91{fill:#8c7761;}.cls-92{fill:#c4b79d;}.cls-93{fill:#382f23;}.cls-94{fill:#373025;}.cls-95{fill:#7c6c5a;}.cls-96{fill:#d8c5b3;}.cls-97{fill:#28392f;}.cls-98{fill:#2b3e33;}.cls-99{fill:#31423a;}.cls-100{fill:#454c48;}.cls-101{fill:#7e817e;}.cls-102{fill:#8c908d;}.cls-103{fill:#2f2c20;}.cls-104{fill:#3b3227;}.cls-105{fill:#372d21;}.cls-106{fill:#807265;}.cls-107{fill:#74614e;}.cls-108{fill:#5a4d3d;}.cls-109{fill:#756048;}.cls-110{fill:#776451;}.cls-111{fill:#f6f9f4;}</style></defs><path class="cls-1" d="M759.07,694.72H-197c-.87-1.62-.44-3.37-.44-5.06q0-474.1,0-948.21c0-1.68-.43-3.43.44-5.05H759.07c.87,1.62.44,3.37.44,5.05q0,474.11,0,948.21C759.51,691.35,759.94,693.1,759.07,694.72Z"/><path class="cls-2" d="M161.42,240c-5.63,2.08-7.47,7.12-8.77,12.13-2.7,10.35-6,20.34-13.08,28.62-2.78,3.25-5.51,6.58-9.34,8.72-1.76,1-3.08,1.3-2.77-1.53.45-4,0-8-.3-12.06-1-14.06,5.24-23.55,19-28,3.49-1.14,5.91-3.11,8.73-6.23-3.16.32-5.62.61-8.08.81-10,.78-19-2.81-27.89-6.61-5.32-2.28-10.6-4.59-16.56-4.46a3.11,3.11,0,0,1-3.4-2.78c-.36-2.19,1.6-1.64,2.72-2,4.67-1.55,8.27-4.85,12.32-7.44,2-1.28,3.73-3.12,6.34-3.24a33.38,33.38,0,0,1,10.65-.09,8.11,8.11,0,0,1,6.25,2.74c.8,1.21.13,1.79-1,1.78-3.28,0-6.26,1.17-9.14,2.39s-6.2.31-9.13,1.42c-3.22,1.17-6.81,1.56-9.34,4.47,19.38,11,39.43,14.66,60.8,6-3.45-2.88-8.19-1.61-12-3.43,0-1.56,1-1.07,1.79-.88l3,.21a82.22,82.22,0,0,0,16.15,0,63.52,63.52,0,0,1,18.33,1.47,163.8,163.8,0,0,0-19-9.13c-16.37-7.07-30.35-18.19-45.68-27-4.15-2.39-8-4.31-13.16-2.67-4.69,1.48-8.64-1.15-11.41-5a20,20,0,0,1-4.17-12c0-3.87,0-7.75.33-12,3.88,5.62,10.11,6,15.69,7.84,7,2.33,10,9.06,7.19,15.73l-3.58-4.27c-2.07-.25-2.94-2.22-4.36-3.08,1.22,1.14,2.91,2.14,3.23,4.21l1,1.44c.09,2.31-1.71,1.63-2.77,1.53-3.09-.28-6.22-.47-8.53-1.7,3.67,2.15,8.6.92,13,2.51.7,3.22,3.85,2.62,5.89,3.72,7.21,3.86,14.5,7.58,21.76,11.36a19.18,19.18,0,0,0,3.78,1.65c-10.24-15.13-11-31.47-6.87-48.46-1,6.66-1.64,13.34-.71,20.09,2.25,16.27,10.06,28.63,25,36.15a161.23,161.23,0,0,0,17,7.37c15.18,5.56,29.77,12.26,43.18,21.38.95.65,2,2,3.14,1.4s.53-2.16.55-3.27c.08-7.13,0-14.25.13-21.37,0-1.84.17-3.5-2.48-3.54a2.75,2.75,0,0,1-2.94-2.75c.15-2.06,2.11-1,3.23-1.09,3.89-.17,7.79-.16,11.69-.13.81,0,2.11-.44,2.3.84a2.42,2.42,0,0,1-1.06,2c-3.3,1.41-2.63,4.19-2.62,6.82,0,7,0,14,.07,21,0,.76-.06,1.85.38,2.22.94.79,1.69-.27,2.39-.81,15.09-11.61,31.93-19.6,50.2-24.84,18.47-5.3,29.9-17.19,32.93-36.55a72.55,72.55,0,0,0-.13-21.27,23.24,23.24,0,0,1-.34-4.91c4.72,17.3,3.54,34.07-4.86,50.36,8.85-4.4,17.82-8.32,25.83-14,1.46-.3,3.07-1.31,4,.82-8.53,5.52-17.13,10.93-25.57,16.58a191.52,191.52,0,0,1-38.48,19.79,14.16,14.16,0,0,0-3.89,2.12c13.16-2.14,26.45,1,39.55-1.48.95-.1,2.18-1.08,2.53.78l-15,3.21c10.21,5.9,27.31,8.14,38,5,6.8-2,13.63-3.92,20-7.17,2.85-1.46,2.24-2.7.17-4.21-2.26-1.64-5-1.72-7.57-2.49-5.21-.19-9.71-3.42-15.11-3.31-1.87,0-3.8,1.51-5.69.15l-.22.11c-.72-3,.69-4.92,3.36-5.75,3.11-1,6.21-3.36,9.65-.82a23.58,23.58,0,0,1,12.94,6c3.46,3.13,7.26,5.56,12.06,5.89,1.4.09,1.86.7,1.76,2s0,2.52-1.7,2.69c-10.34,1.05-19.33,6.3-29,9.29-6,1.84-11.86,3.41-19,1.17,2.43,2.75,4.21,4.36,6.84,5.33,14.49,5.37,20.09,14.87,18.12,30.11-.46,3.59-.75,7.21-.85,10.83-.05,1.75-.38,2.18-2.05,1.5a9,9,0,0,1-3.92-2.65c-7.47-9.43-14.17-19.24-16.51-31.38a36.41,36.41,0,0,0-2.09-6.93c-1.7-4.09-4.39-7.29-8.76-8.88-19.42-7-44-.57-57.32,15.17a43.54,43.54,0,0,0-9.09,18.64c-4.5,19.32-3.7,38.35,7.19,55.24,13.36,20.71,33.17,29.31,57.79,26.32,2.26-.28,4.54-.44,6.8-.75,8.95-1.21,17,1.3,24.58,5.81A24.42,24.42,0,0,0,367,363.87a21.22,21.22,0,0,1,11,3.45c-4.75-.63-9.39-2.55-14.81-1.2,4.52,6.42,8.74,12.55,15.19,16.71.18.73,0,1.13-.81.82a1.41,1.41,0,0,1-.69-.22,4.71,4.71,0,0,1-2.67-1.25c-7.09-7.27-13.94-14.7-23.57-19-7.55-3.37-15-4.5-23-2.67-4.56,1-9.2,1.73-14.71,2.75,4.71,2.13,8.68,4.17,13.23,5.09,5.88,1.19,11.74,2.4,16.48,6.7A26.74,26.74,0,0,1,351.89,394a11.58,11.58,0,0,1,0,5.76c-3,.35-2.9-2.13-3.25-3.9-1.17-5.91-3.34-11.21-8.08-15.24-3.28-2.78-7.14-3.88-12.07-4.92,2.61,5.54,4.17,10.56,4.05,15.95a3.75,3.75,0,0,1-1.74,2.42c-1,5.75-2.85,11.08-6.72,15.6a23,23,0,0,0-2.2,3.8c-.34.8-.84,1.48-1.81,1.16s-1-1.18-.9-2a8.1,8.1,0,0,1,1-3.33,9.29,9.29,0,0,0,1.53-3.46,4.75,4.75,0,0,1,.29-1.06,12.27,12.27,0,0,0,1.24-4.24c.68-3.54,1.49-7,1.28-10.7-.41-7.15-3.53-12.4-9.9-15.84-5.3-2.87-11.23-3.52-16.88-5-5.29-1.37-10.17-3.13-14.45-6.53a26.8,26.8,0,0,0-4.94-2.62c-3.93-2.77-7.87-5.53-11-9.34a20.43,20.43,0,0,1,2.18,5.48c1.54,6.81,5.83,11.61,11.2,15.65,4.59,3.45,9.13,7,13.74,10.41a19.71,19.71,0,0,1,3.68,4.51c1.65,2.8,3.74,5.39,4,8.82-.46,2.28-1.12,4.54-.4,6.88l.27,13.51c.13,1,1,2.29-.92,2.56L299.73,415c-.79,4.21-6.05,7.08-3.54,12.16.33.87-.06,1-.8.79-1.54-.34.53-3.72-2.41-2.87a2.42,2.42,0,0,1-1.08-2.15c1.09-5.09,3.2-9.9,3.6-15.23.68-9.08-2.77-15.93-10.15-21.1-.29.3,0,.56.11.81s.32.74.48,1.11c5.34,12.12,2.87,22.9-6,32.27-2.7,2.84-3.87,5.33-1.48,8.74.49,1.79,1.79,3.24,2.18,5.07a3,3,0,0,1,.09,1.12c-.24.7-.4,1.5-1.47,1.14l0,0c-2.35.1-1.79-2-2.46-3.21a20.41,20.41,0,0,0-4-6.39,9.65,9.65,0,0,1-3.69-3.4c-1.33-1.72-1.36-4-2.33-5.83-.81-1.89-1.32-3.93-2.63-5.6-1.87-4.38-3.83-8.71-5.39-13.22-.57-2.37-2-4.43-2.48-6.84.1-3.33-1.5-6.42-1.43-9.74.93-3.53,3.76-5.36,6.53-7.23,1.6-5.69-.65-10.05-4.49-14.11-19.55-20.67-26.38-46.83-31.44-73.69-1.49-7.87-2.55-15.83-4-24.88,9.94,11.48,15.48,24.24,22,36.48a55.94,55.94,0,0,0-7.75-23.65C223.51,256,207.29,242.08,184,237.93a40.71,40.71,0,0,0-17.54.59C165,239.7,163,239.27,161.42,240Z"/><path class="cls-3" d="M235.77,42.34q-73,2.88-117.89,60.68c-21,27.25-29.95,58.19-27.31,92.46A151.59,151.59,0,0,0,92.8,211c.42,2.35.08,3.45-2.5,3.7-2.23.22-4.1.92-4.68-2.41C83,197,82,181.57,84.3,166.16c7.6-51.27,35.69-88.42,80.89-112C215.92,27.67,267.4,29,317.47,56.45c38.47,21.09,62.88,53.76,73.21,96.5,4.7,19.44,4.31,39.12.83,58.82-.81,4.53-3.31,3-5.72,2.85-3.37-.29-1.85-2.72-1.56-4.26,4.78-25.83,3.67-51.32-6.58-75.62-21.18-50.19-59.46-79.5-112.56-90A149.68,149.68,0,0,0,235.77,42.34Z"/><path class="cls-4" d="M117.91,372.38c1-1.64,2.11-3.27,3.17-4.91.94-2.11-.59-1.82-1.85-2-1-.16-2.59.89-2.91-1.13a35.6,35.6,0,0,0,16.8-5.1c7.29-4.42,15.16-5,23.34-4.25,5.88.54,11.79.64,17.69.86,18.71.7,40.64-16.41,45.69-35.4,1.1-4.14,2.54-8.2,3.85-12.36,1.44.7,1.28,2.05,1.58,3.09,2.2,7.62,4.15,15.31,6.53,22.86,3.3,10.46-1.4,18.48-7.44,26.2-.28,1.19-.49,2.41-.8,3.59,2.43,3.71,4.57,7.51,3.61,12.22.36,4.25-1,8.22-2.31,12.12-1.65,4.93-2.78,9.72.12,14.56-.25,1.82-1.35,2.49-3.08,2.3-2.37-.51-2.88,1.21-3.58,2.86-1.35,3.22-.16,6.69-1.13,9.93-.84,1.45-1.91,2.14-3.53,1.13a3.33,3.33,0,0,1-.75-.92,21.07,21.07,0,0,0-3-5.45c-.82-2.92.4-5.55,1.25-8.2,2.78-8.69,3.89-17.68,5.36-27.64-6.39,4.52-13.69,6.26-16.87,13.41-1.07,1.69-.6,3.63-.87,5.45a1.86,1.86,0,0,1-1.35,1.78,1.06,1.06,0,0,1-1.21-.78c-.27-.7-.87-1.4-.24-2.21-.73.53.22,1.87-1.39,2.21-.92-2.45-.61-4.94-.19-7.44-.61-3-1.88-.71-2.48-.15-5.45,5.13-8.15,11.35-7.06,18.94.19,1.31.51,2.6.77,3.9.63,2.46,2.69,4.44,2.47,7.2l0,0c.52.53,1.25.93,1.08,1.86-.24.55-.53,1-1.25.65-2.42-2.18-2,.42-2.47,1.48a3,3,0,0,1-1.46,1.79l0-.05c-1.33,0-1.42-.66-.8-1.63,1.48-4.55,1.43-5-1.43-11.42-1.49,2.59-2.87,5-4.24,7.36-.81.14-1.29,0-.91-1a5.92,5.92,0,0,1,1.58-3.91c1.94-2.74,1.46-5.8,1.13-8.83l-.24-1.54c-.3-2-.81-4-1.14-6-.2-3,1.51-5.34,2.45-7.95a19.64,19.64,0,0,1,6.16-7.14c4.17-4.32,9.49-7,14.68-9.69,8.44-4.42,12.92-11.26,13.69-20.44-7.95,8.62-18,13.89-29.39,16.79a18,18,0,0,0-4.05.73A80.69,80.69,0,0,0,170.68,373c-8.75,3.11-13,8.94-13.3,18.31a58.94,58.94,0,0,0,.44,7.16,7.43,7.43,0,0,0,1.23,5.12,3.85,3.85,0,0,1,.28,1.25,8.32,8.32,0,0,1,0,1.32c-.3,1.1-.55,2.26-2.15,1.86-3.8-2.87-2.82-7.7-4.66-11.37a21.36,21.36,0,0,1-.73-2.48c-.13-7-.17-13.89,4.48-19.95-10.24.6-18.49,7.73-21.53,18.3-1.21,2,1.16,4.68-1.33,6.38-1.6-15.19,5.68-25.7,20.56-29.42,5.73-1.43,11-3.78,16.35-6.07-19.31-6.48-36.94-5-51.58,10.6C117.37,374,117.27,373.37,117.91,372.38Z"/><path class="cls-5" d="M239.29,181.14H225.6c-6.64,0-11.71-3.87-11.64-10.42.07-6.72-3.2-10.86-7.64-15.08-18-17.18-21.25-40.5-8.57-60.63,12.18-19.35,37-27.47,59.06-19.34,24.66,9.07,37.78,33.23,31.39,57.87-2.25,8.71-7.16,15.81-13.66,21.89-1.76,1.66-3.47,3.37-5.25,5a11.14,11.14,0,0,0-3.7,8.56c-.14,8.17-4,11.87-12.2,12-4.7,0-9.4,0-14.1,0Z"/><path class="cls-6" d="M314.7,243a36.18,36.18,0,0,0-2.8,7.44c-.76,3.75-.46,6.56,3,9.32,6.25,4.93,6.17,15.57.16,22.92-4.89,6-11.93,8.62-19.88,12.1,2.82-6.49,2.12-12.27,2.31-18a19.25,19.25,0,0,1,5.83-13.3c.8-.82,2-1.38,2.13-3-4.23.29-6.52,3.32-9.2,5.84-1.37,1.29-2.57,4.33-4.47,3.12-1.71-1.09-.5-4,.2-6,2.13-6.07,6-8.66,13.11-8.06,2.75.23,3.41-.54,3.68-3.06C309.31,247.71,310.73,245.63,314.7,243Z"/><path class="cls-3" d="M176.9,244.75c2.83,2.95,3.73,6.82,4.63,10.56.53,2.19,1.39,2.61,3.46,2.63a10.86,10.86,0,0,1,10.92,9.73c.11,1.13.62,2.65-.6,3.3s-1.89-.76-2.65-1.39c-2.66-2.21-4.95-4.89-8.21-6.33-.17.28-.42.61-.38.65,5.34,5.65,6.13,12.57,5.67,19.87a30.76,30.76,0,0,0,1.56,11.93c-6.28-3.08-12.28-5.39-16.8-10.25-6.79-7.31-6.3-21.87,2.65-26.85,1.53-.85,1.56-2,1.49-3.34a21.58,21.58,0,0,0-2.67-8.79C175.43,245.43,175.42,244.69,176.9,244.75Z"/><path class="cls-7" d="M277.49,430.44c-.46-.82-.88-1.66-1.39-2.44-1.57-2.43-1.56-4.17.9-6.43,10-9.15,14.72-20.65,4.87-38.1,7.08,1.75,14.11,10.14,15,17.9A38.59,38.59,0,0,1,293,422.48c-1,4-3.26,7.73-3,12.07,0,.61-.44.89-1,.94-.74-2.42-1.4-4.84-.26-7.63-5.1,2-6.65,5.4-4.67,9.76,1,2.23,2,4.38,1.42,6.89-3.47-2.07-4.15-5.82-5.51-9.16l.05-.08c-1.23-2.76.53-4.81,1.69-7,1.58-2.95,4.24-5.11,5.91-8-2.29,3.11-5,5.88-7,9.26C279.91,430.84,279.19,432.43,277.49,430.44Z"/><path class="cls-8" d="M178,186.64c-1.35,4.48-.51,8.06-.87,11.84.2-2.19-1.91-2-2.51-2.82a12.32,12.32,0,0,1-2.23-9.51,16.74,16.74,0,0,1,10.15-13.05c3.65-1.65,7.52-2.8,11.19-4.41,2-.87,2,.16,2,1.52-.07,6.58-.28,13.14-3.12,19.27a12.42,12.42,0,0,1-2.66,4c-4.45,4.19-9.16,3.05-10.93-2.7C178.73,189.75,178.53,188.72,178,186.64Z"/><path class="cls-9" d="M353.52,185.83c-1-8.31,2.09-12.7,12-15.72,4.34-1.32,8.84-2,12.72-5.94-.06,7.46-.21,14.14-2.37,20.49-2.74,8.05-10.36,10.9-17.79,7-2.05-1.87-1.2-3,1-3.51A55.21,55.21,0,0,0,367,186a45.22,45.22,0,0,1-8,2.14c-.82.13-1.63.29-2.24-.41-.83-.93-.16-1.78.29-2.56a19.82,19.82,0,0,1,4-4.39,26.76,26.76,0,0,0-4.34,4.72C356,186.7,354.83,188.16,353.52,185.83Z"/><path class="cls-10" d="M149.32,154.49c-5.62-2.79-7.51-8.08-8.75-13.59-1.91-8.48-.21-15.64,5.11-23.63,13.56,9.81,15.66,26.91,4.46,36.45-1.08-1.09-.72-2.49-.79-3.79-.25-4.52,1.08-9,.18-12.5C150.32,142.43,148.93,148.44,149.32,154.49Z"/><path class="cls-11" d="M306,192.28c-.21-.47-.3-1.12-.66-1.38-.77-.57-.71.13-.78.65-.55,4.39-3.61,4-6.62,3.3-4.53-1.1-6.76-4.7-8.3-8.64-2.28-5.8-2.4-11.93-2.58-18.68,3.68,2.72,7.51,3.44,11.16,4.66,11.59,3.89,16.41,16.51,10.47,27.18-1.12,2-1.12.41-1.37-.41-.69-1.81-.15-3.7-.17-5.53,0-4.53-1.83-7.62-6.15-9.14a3.58,3.58,0,0,1-1-.6c2.2,1,5.19,2.26,6.47,5.54C307,190.65,307,190.63,306,192.28Z"/><path class="cls-5" d="M329.69,137.69c-1.26,5-.74,10.18-.36,15.74-10.73-10-10.05-27,5.21-36,6.8,16.7,5.59,29.22-3.77,36.27C329.56,148.33,330.11,143,329.69,137.69Z"/><path class="cls-12" d="M259.85,399a83.76,83.76,0,0,1,5.51,13.16c1.29,3.66.58,7.26-.17,10.9-.66,3.26-2.06,6.38.34,9.83a8.29,8.29,0,0,1,.78,6.47c-3.35-3.57-5.1.64-7.52,1.55a1.58,1.58,0,0,1-.45-1.46c2.38-7.28-2.57-12.14-5.78-17.57a11,11,0,0,1-3.24-4.95,9.6,9.6,0,0,1,1.79-7.55c2.13-3.1,3.36-6.67,5.11-10C257,397.82,258.25,395.55,259.85,399Z"/><path class="cls-13" d="M164.82,164.56l-2,4.33c-5.26-5.79-.51-18.46,9.32-25.39,5.54,15.13,1.31,25.84-7.35,26.33C164.19,168.05,165.1,166.39,164.82,164.56Z"/><path class="cls-14" d="M310.62,169.9c-5.94-2.62-8.64-7.51-8.8-13.68-.1-4.35.6-8.73,1-13.39,8.15,5.21,13.33,11.7,12.65,21.62-.18,2.55-.36,2.83-2.48,3.85-2.82-2.83-2.92-6.93-4.6-9.76.85,2.39,2.27,5.09,3,8C311.63,167.6,313,169.29,310.62,169.9Z"/><path class="cls-13" d="M239.46,184.52c5.24,0,10.47,0,15.71,0,1.61,0,3.54-.27,3.57,2.1s-1.39,3.4-3.58,3.46c-2.82.08-5.64.07-8.46.08-7.8,0-15.59,0-23.38.05-2.35,0-3.91-.48-3.88-3.27,0-3,2-2.51,3.9-2.49,5.37.06,10.75,0,16.12,0Z"/><path class="cls-15" d="M250.42,416.75l2.93,4.09c.61,1.34,3.08,3.11-.8,3.39-2-.12-2.37-3.16-4.73-2.54a11.36,11.36,0,0,1-2.55,2.25c-2.6,3.93-4.19,8.47-7.17,12.17-1.21.25-1.42-.63-1.67-1.46a36.84,36.84,0,0,1,4.07-10.77c2.95-5.43,2.61-10.64-.11-16-2.57-5.11-5.46-10.12-6.6-15.84,0-3.54,2.4-3.88,5.09-3.86,1.87.8,2.42,2.71,3.52,4.17,2,4.22,2.91,8.78,4.15,13.25a18.39,18.39,0,0,0,2.13,4.25C249.87,412,249.48,414.52,250.42,416.75Z"/><path class="cls-16" d="M221.76,363.39c.87-1.06,1.73-2.12,2.6-3.17,1.31,1.52,2.11,0,3-.58A30.19,30.19,0,0,0,239,342.81l6.44,11.77a5.44,5.44,0,0,1-2.26,3.73c-2.9,1.67-4.92,4.32-7.32,6.54-1.44,1.33-2.8,2.84-5,2.7A36.56,36.56,0,0,0,221.76,363.39Z"/><path class="cls-17" d="M238.81,199.25c-4.95,0-9.9-.05-14.85,0-1.83,0-3.17-.27-3.28-2.46-.11-2.34,1.19-3,3.25-3,10.17-.07,20.34-.19,30.51-.3,1.68,0,3.53,0,3.43,2.27a3.07,3.07,0,0,1-3.4,3.16c-5.22,0-10.44,0-15.66,0Z"/><path class="cls-18" d="M194.43,389.14v6.51c1.46-.86.38-2.06,1.4-2.86.64,1,0,2.76,1.39,3.61,1.34-2.26-1.06-5.13,1.29-7.11,1.83,1.31,1.5,3.32,1.49,5.12-.07,7.94,3.35,14.66,7,21.4,1.83-.6,1.74-3,3.62-3.12,2.9.54,2.78,2.95,3.12,5.07-1.19,2.71-1.09,5.72-2,8.51a1.63,1.63,0,0,1-2.14.33c-1.38-1.72-2.26-.91-3,.59-2-.26-1-1.61-1-2.62.25-2.7-1.68-4.4-3-6.36-5-7.54-9.21-15.38-8.94-24.82C193.77,392,193.44,390.43,194.43,389.14Z"/><path class="cls-19" d="M211.54,425.52c-1.22-2.79,0-7.1,2.19-7.76a.43.43,0,0,0,.15.57c3.19,4.73,6.06,9.67,9.45,14.26.9,1.22,2.07,2.59.91,4.33q-1.16,5.64-2.3,11.28c-.16.8-.35,1.8-1.23,1.87-1.43.12-1.05-1.21-1.26-2l-1.47-5.8c-.23-3.72-2.58-6.57-4.08-9.76C212.84,430.24,211.33,428.18,211.54,425.52Z"/><path class="cls-20" d="M239.78,208.37H228.93c-2.35,0-3.91-.86-3.91-3.48,0-2.88,2.22-2.17,3.79-2.19,7.51-.1,15-.09,22.53-.12,1.8,0,3.61-.1,3.48,2.59-.11,2.24-1.29,3-3.37,3-3.89,0-7.78,0-11.67,0Z"/><path class="cls-21" d="M301.63,402.24c-1.23-2.27-.82-4.71-.72-7.12,1.63-1.67,2.62-.48,3.91.65,5.73,5,10.55,10.84,15.34,16.71,0,.48-.19,1.18,0,1.4.6.55,1.09-.23,1.63-.44,1.85,8,3.47,16.18,11.79,20.55-9.19-2.57-10.72-10.83-13.51-18.3-3.48,2.72-4.15,7.06-7.06,10.39-.12-3.4,1.79-5.62,3-8s1.13-4.15-.76-6.11c-4.45-4.62-8.74-9.38-13.2-14.19C301.12,399.39,302.17,400.89,301.63,402.24Z"/><path class="cls-22" d="M261.35,375.36c-.51,3.47-4.26,4.15-5.81,6.72-4.28-1.31-4.63-5.59-6.57-8.67-.74-1.7-1.56-3.38-1.3-5.33.52-1.3.82-2.7,1.37-4s1.32-2.53,2.68-.6C255.41,367.06,258.11,371.43,261.35,375.36Z"/><path class="cls-23" d="M330.76,394l.84-2.3c1.75-.82,2.68.61,3.8,1.44,1.79,1.34,3.18,3.26,5.51,3.83a11.16,11.16,0,0,1,1.64.23,79.94,79.94,0,0,1,8.42,2.54c1.5-1.75.24-3.93.92-5.81,1.48,2-.68,5.36,1.54,6.45,2,.95,4.73.17,7.13.31a9.91,9.91,0,0,1,8,4.13c-4.51-2.89-9.47-2.32-14.41-2.22-2.49.05-2,1.2-1.44,2.65.28.9-.16,1.09-.94.94-1.48-2.62-7.14-5.76-9.78-5.54-1.52.12-1.23,1.14-1.17,2a37.23,37.23,0,0,0,1.43,9.89c.21.84-.15,1.07-.92.87a11,11,0,0,1-1.9-7.51c.31-3.64-.62-6.78-4.1-8.61C333.64,396.46,333.15,393.93,330.76,394Z"/><path class="cls-24" d="M179.05,397.27l.06,6.59-1.2-3.06a56.67,56.67,0,0,1-13.86,13.94c-1.48,1.09-1.25,2.57-1,4,.58,3.92-.51,7.41-2.92,11.3.45-3.26,2.38-5.67.9-9.28-3,8.26-10.81,10.83-16.56,16.54.91-3.17,3-4.59,5.07-5.94a29.47,29.47,0,0,0,7.76-6.92,13,13,0,0,0,2.62-10.21.78.78,0,0,1,.7,0c.36.2.43.59.58.92.11-.32-.13-.61-.08-.95.43-1.87,2-2.79,3.27-3.93a146.18,146.18,0,0,0,10.8-10.76C176.22,398.42,177.07,396.87,179.05,397.27Z"/><path class="cls-25" d="M237.29,434.55c.27.52.54,1,.8,1.56-1.32,3.34-2.6,6.7-4,10a8,8,0,0,0,1.22,8.3c2,2.69,4.06,5.34,6.23,7.9a8.21,8.21,0,0,1,1.83,8c-.86-8.89-9.77-12-12.25-20.45-1.87,3.43-3.29,6-4.7,8.59,1.42-5.49,5.46-10.72.93-16.52.13-.94-.11-2,.79-2.71,2.79-.32,2.65,2.47,4.17,4a28.68,28.68,0,0,1,2.08-6.13C235,436,235.18,434.09,237.29,434.55Z"/><path class="cls-26" d="M344.68,221.39c7.59-3.26,14.36-1.12,20.8,3.16-6.08,2.82-12,4.66-17-2C347.53,221.33,345.47,223.32,344.68,221.39Z"/><path class="cls-27" d="M252.32,423.34c3.08.3.62-1.69,1-2.5,3.84,4,5.53,9.11,7.29,14.07.56,1.57-1.17,3.95-1.85,5.95-3.17,4.34-3.43,9-1.85,14.05-.39-.82-.79-1.65-1.17-2.49s-.83-1.93-1.38-3.21c-2.92,2.33-4.41,5.61-6.59,8.3a.84.84,0,0,1-.07-1.25q2.4-4,4.79-8.06c.86-.9.2-2.26,1-3.18,3.33-5.65,3.9-11.23-.13-16.87C252.38,426.8,251.3,425.23,252.32,423.34Z"/><path class="cls-28" d="M228.3,439.52c-.05.91,0,1.87-.93,2.41-1.57-1.34-2-3.41-3.13-5-1.25-3.44-3.84-6-5.87-8.93s-4.15-5.9-4.49-9.66c1.28.75,2,.07,2.54-1,2,.1,2.48,1.74,3.24,3.06,1.84,3.19,3.71,6.35,5.54,9.54.73,1.13,1.1,2.43,1.72,3.62C227.21,435.57,229.08,437.24,228.3,439.52Z"/><path class="cls-29" d="M118,224.06c5.9-1.78,11.27-5.66,17.92-4.39.81.15,1.14-.52,1.33-1.2a2.57,2.57,0,0,1,1.71,3c-1.95-.47-3.22-.3-4.7,1.72-2.62,3.56-9.89,4.07-14.1,1.58A16.56,16.56,0,0,0,118,224.06Z"/><path class="cls-30" d="M135.36,350.2c-2.05-8.53-11-6.34-16.41-10.52,9.06,1.76,18,2.71,19.75,14.31-7.24-4.85-13.37-.31-19.89,2a15.28,15.28,0,0,1-9.92.2C118.6,357.71,125.58,348.25,135.36,350.2Z"/><path class="cls-31" d="M266.31,439.31c-1.11-2.71-.76-6-3.57-8.08-.79-.58-.14-2,.08-3,1.12-5.31,2.36-10.61,2.54-16.08a10.67,10.67,0,0,1,2.6,5.36c-.71,2.82-.49,5.78-1.62,9.21,1.77-1.3,2.41-2.92,3.94-3.42l2.49,4c-5.08,2.08-6.19,4.43-5.27,11.13C267.7,439.82,267.7,439.82,266.31,439.31Z"/><path class="cls-32" d="M151.76,394.13a2.16,2.16,0,0,1,.73,2.48c-.7-1.16-1.11-1-2.3-.19a49.26,49.26,0,0,0-17.43,19.46,5.33,5.33,0,0,1-3.28,3.21c3.11-5.45,5.57-10.24,8.5-14.72a12.34,12.34,0,0,0,2.4-7.42c-.14-5.13,2.32-9.35,5.07-13.45C144,389,140.24,394,142.16,400.45Z"/><path class="cls-33" d="M358.92,342.35c-5.06,1.25-9.71,3.06-11.88,9.42,10.49-4.23,18.42,3.86,28.53,4.57-4.41.67-7.35.42-12.3-1.92-5.3-2.51-10.47-2.92-15.88-.62-.81.35-1.87,1-2.6.06s.19-1.8.55-2.57c2.54-5.47,5.93-9.91,12.78-9.77C359,341.25,359.12,341.62,358.92,342.35Z"/><path class="cls-34" d="M139.13,217.16c-6.34-3.64-12.3-3.41-18.3-3-1.09.07-2.66.83-3-.87s1.32-1.78,2.38-2.13C127.61,208.66,135.52,210.88,139.13,217.16Z"/><path class="cls-35" d="M251.72,363.5c-1.27-.49-1.67.14-1.54,1.27.17,1.61-.71,2.67-1.73,3.69-3.52-1.75-5.95-6.32-5.61-10.55a4,4,0,0,1,2.55-3.33C247.19,357.77,250.31,360,251.72,363.5Z"/><path class="cls-36" d="M353.52,185.83c1.17,1.4,1.57.3,2.29-.56,2.63-3.14,5.4-6.15,9.14-8.08-2.34,3.5-6,6-8,10.36,5.47-.21,10-2.27,14.68-3.78-2.86,3.23-6.94,3.61-10.72,4.75-1.36.4-4.51-.17-2.75,3.16l-2.32.74c-1-2.09-2.76-.16-4-.82.59-.26,1.18-.55,1.78-.79.94-.37,2.38,0,2.65-1.36.37-1.91-1.44-.94-2.15-1.45A1.81,1.81,0,0,1,353.52,185.83Z"/><path class="cls-37" d="M254.2,445.74l-1.68,2.46c.46-2.69-1.06-4.9-1.8-7.29-1.78-5.67-3.63-11.31-5.45-17a4.19,4.19,0,0,1,1.52-3.27c.37.15.83.28,1,.64C251.07,429.15,254.53,437,254.2,445.74Z"/><path class="cls-38" d="M343.9,218.18c.84-4.49,4.28-6.21,8.1-7.22a18.47,18.47,0,0,1,9.53.35c1.09.29,2.67.9,2.19,2.35-.41,1.22-1.91.25-2.9.4C354.66,213.3,349.18,215.34,343.9,218.18Z"/><path class="cls-39" d="M188.13,419c-.91-2.37-2.81-4.4-2.47-7.2l1.31,1.74c1.2-3.06,2-6.13,4.09-8.59.48-.57.7-1.69,1.7-1.25s.2,1.33.26,2C193.51,411,189,414.32,188.13,419Z"/><path class="cls-40" d="M205.64,424.57c.32.87,0,2,1,2.62-.83,3.6-3.55,6.18-5.09,9.41-1.25,2.63-3,5.11-1,8.52-1.56-.77-1-2.72-2.73-2.5-1.31,0-1.45-.67-.83-1.67Z"/><path class="cls-41" d="M301,418.31c1-.59.48-1.76.92-2.56,3.16,8.41,8.58,15.73,11.57,24.25-3.68-5.87-7.37-11.72-11-17.61C301.72,421.16,300.82,419.91,301,418.31Z"/><path class="cls-42" d="M211.54,425.52c2.91,5.28,6.25,10.4,6.44,16.72l-8.37-15.64Z"/><path class="cls-43" d="M133.38,398.86c1.13-2-.39-4.52,1.33-6.38.51,2.55-1.26,5.31,1.42,7.82,1.05,1-1.37,1.37-2.37,1.43-5,.32-10.17.29-14.63,3.36,2.83-3.41,6.57-4.65,10.86-4.84C131.2,400.2,133.13,401.42,133.38,398.86Z"/><path class="cls-44" d="M306,192.28A5.17,5.17,0,0,0,302.7,186c-3-1.21-4.62-3.37-6.74-5.92,11.16,5.86,12.64,8.4,11.31,18.93C306.16,196.87,306.06,194.57,306,192.28Z"/><path class="cls-45" d="M343.9,218.18c4.84-4.67,10.64-5.38,16.92-4.12l-3.35.87c-3.15.35-6.36.51-9.23,2-1.83,1-3.93,1.85-3.78,4.54A2.29,2.29,0,0,1,343.9,218.18Z"/><path class="cls-46" d="M329.94,230.21l-2.53-.78c5.59-1.48,10.94-3.7,16.47-5.41A29.07,29.07,0,0,1,329.94,230.21Z"/><path class="cls-47" d="M183.22,423.17c.24.55.05,1.32.8,1.63a58.75,58.75,0,0,1-9.41,14.38Z"/><path class="cls-48" d="M159.24,230.2l-1.79.88a36.61,36.61,0,0,1-16.15-6.76C147,227.3,153.29,228.18,159.24,230.2Z"/><path class="cls-49" d="M124.39,188.31a51.12,51.12,0,0,1-10.77-.93c-2.73-.66-5.32-1.68-7.15-5.29,5.59,2.79,10.3,6.46,16.25,3.88Z"/><path class="cls-50" d="M289,435.49c1-4.43.84-9.25,4-13,0,.86,0,1.72,0,2.59a43.08,43.08,0,0,0-2.85,15.82C288.47,439.3,289.33,437.27,289,435.49Z"/><path class="cls-51" d="M116.32,364.32c1.18,1.15,2.69.52,4,.77,1.71.32,2.36,1,.73,2.38.19-1.64-.92-1.57-2-1.61-4.32-.14-8.5.28-12.39,2.42a13.81,13.81,0,0,1-4,1.36C106.74,366.61,110.93,363.89,116.32,364.32Z"/><path class="cls-52" d="M374.22,382.18c1.1,0,2.12.11,2.67,1.25-.22,4.51,2.2,8,4.34,11.66a31.65,31.65,0,0,1,2.35,3.59C378.08,394.58,376.08,388.42,374.22,382.18Z"/><path class="cls-53" d="M149.32,154.49c-1.37-1.93-.91-4.13-.75-6.2.33-4.25.9-8.48.3-12.76,2.5,5.92.81,12.13,1.27,18.19Z"/><path class="cls-54" d="M117.91,372.38l.8,1.59a60.21,60.21,0,0,1-7.33,9.64,1.41,1.41,0,0,1-1.75.19,4.35,4.35,0,0,0-.52-.06c-.86.31-1-.1-.85-.83C113.15,380.93,114.6,375.8,117.91,372.38Z"/><path class="cls-55" d="M176.9,244.75c-.8.31-.82,1-.93,1.72-3.84-4.43-8.53-7-14.55-6.52a7.54,7.54,0,0,1,5-1.43c1.95,1.95,4.93,1.56,7.06,3.12C174.74,242.56,176.3,243.13,176.9,244.75Z"/><path class="cls-56" d="M280,435.35l5.51,9.16,2.55,4.75c-4.09-3.39-6.59-7.79-8.77-12.42Z"/><path class="cls-57" d="M276.76,433.61l2.46,3.21c-3.65,4.55-4.23,9.85-3.7,15.41-1.81-1.69-1.7-1.69-1.56-4.5C274.19,442.87,277.17,438.58,276.76,433.61Z"/><path class="cls-58" d="M184.07,424.85c.49-.6,1-1.2,1.46-1.79,1.57,5.86.79,11.83.95,17.78C185.06,435.58,186,430,184.07,424.85Z"/><path class="cls-59" d="M310.62,169.9c1.33-1.91-.31-3.44-.76-5.05-.88-3.18-2.08-6.26-2.89-9.48a54.2,54.2,0,0,1,6,12.93C312.11,168.73,312.85,171.48,310.62,169.9Z"/><path class="cls-60" d="M161.58,414.15a11,11,0,0,1,.37,5.4c-2-1.5-.47-4-2.06-5.3q-1.38-3.13-2.74-6.27c.95-.57,1-1.53,1-2.47,2.2-.41,1.86,1.8,2.8,2.69C161.68,410.13,162.7,412,161.58,414.15Z"/><path class="cls-61" d="M109.63,383.8l1.75-.19c-1.31,3.75-2.52,7.54-4,11.22a6.84,6.84,0,0,1-3,3.63c-.59.19-.75,0-.49-.55C107.3,393.8,108,388.63,109.63,383.8Z"/><path class="cls-62" d="M176.64,418.14c.3.32.61.64.91,1-1.62,3.95-4.49,7.06-6.94,10.48A44.16,44.16,0,0,1,176.64,418.14Z"/><path class="cls-63" d="M188,421.58l1-.91c.94-.18,1.17.42,1.25,1.17,1.67,3.38,4.09,6.41,4.52,10.44Z"/><path class="cls-64" d="M196.93,441c.07.66.09,1.34.83,1.67a25.5,25.5,0,0,1-8.2,9Z"/><path class="cls-65" d="M295.39,427.93l.8-.79,5.73,12.09C299.12,435.77,296.19,432.42,295.39,427.93Z"/><path class="cls-66" d="M351.77,406.23l.94-.94q3.19,5.83,6.37,11.67C355.44,414.14,353.72,410.11,351.77,406.23Z"/><path class="cls-39" d="M190.26,421.84,189,420.67l-.84-1.6c2.43.2,2.09-1.71,2.5-3.16.28-1,1-2.25,2.14-1.86,1.51.5.33,1.74.21,2.66C192.76,418.78,190.46,419.74,190.26,421.84Z"/><path class="cls-67" d="M152.77,407.62c-2.2,3.58-5.2,6.55-7.09,11.13C145.83,414.71,148.7,410.17,152.77,407.62Z"/><path class="cls-68" d="M377.58,383.65l.81-.82c4,1,7.47,3.11,11.18,4.71l-.38.9Z"/><path class="cls-61" d="M108.26,382.91l.85.83-12,5.81C100.28,386.31,104.32,384.7,108.26,382.91Z"/><path class="cls-69" d="M121.76,184.53l-6.61-6.08a10.58,10.58,0,0,1,7.74,5Z"/><path class="cls-48" d="M178.39,230.43a37.44,37.44,0,0,1-16.15,0Z"/><path class="cls-70" d="M247.73,456.26c0,.41.05.83.07,1.25a12.42,12.42,0,0,1-3,6A9.42,9.42,0,0,1,247.73,456.26Z"/><path class="cls-71" d="M341.33,413.46l.92-.87c1,2.1,2,4.21,3,6.31C343,417.61,342.16,415.55,341.33,413.46Z"/><path class="cls-72" d="M358.92,342.35c-.27-.28-.53-.56-.8-.83l6.42-2.49A9,9,0,0,1,358.92,342.35Z"/><path class="cls-34" d="M131,215.73l-10.65.09A16.94,16.94,0,0,1,131,215.73Z"/><path class="cls-62" d="M179.35,405.4c1.16,3.14,1.4,6.17-1.13,8.83A26.91,26.91,0,0,0,179.35,405.4Z"/><path class="cls-73" d="M104.41,398.46l-3.78,5-1.25-1.22c.92-2,2.68-3.22,4.54-4.36A5.19,5.19,0,0,1,104.41,398.46Z"/><path class="cls-74" d="M278.43,358.5c9.47,6.46,20.24,9.27,31.22,12,14.19,3.56,19.74,15.39,14.84,29.26a6.45,6.45,0,0,0-.14,1.6c-1.82,1.38-2.68-.31-3.63-1.26a35.7,35.7,0,0,1-6.39-9.2c-3.92-7.81-9.11-14.49-14-17.54,4.92,3.13,10.12,9.91,14.08,17.81a34.22,34.22,0,0,0,7.32,10,3.51,3.51,0,0,1,1.07,4.31v0c-1.41,2-2.74,1.25-4.37.12a57.14,57.14,0,0,1-12.4-12.44c-7-9.14-15.1-17.38-22.18-26.46-1.43-2.86-5.1-3.88-6-7.22A1.64,1.64,0,0,1,278.43,358.5Z"/><path class="cls-75" d="M273.38,421.74c-2.89-7.79-5.82-15.1-8.3-22.55-1.87-5.64.05-11.15,1.63-16.57.6-2.06,1.33-4.07,2.24-6.83,6.29,7.09,11.56,14.17,13.44,23.16C284.3,408.13,279.37,414.89,273.38,421.74Z"/><path class="cls-76" d="M340.47,398.17c-3.83-.94-6-4.19-8.87-6.43-1.11-6-1.76-12.21-6-17.32,10.27-1.58,21.29,6.86,23.71,17.65.57,2.57.42,5.29,1.66,7.71-3.27,1.21-6-.73-8.84-1.63-1.47-2.39-1.09-5.17-1.51-7.76s-1.19-5.2-2.17-6.46C340.34,387.76,342.15,392.66,340.47,398.17Z"/><path class="cls-77" d="M278.43,358.5c0,.32,0,.63-.05.95a4.26,4.26,0,0,0-.52.55c3.29,4,5.45,8.95,9.64,12.26a79.22,79.22,0,0,1,6.41,6.94c1.53,1.84,1.38,2.25-.34,3.74-5.47-4.1-10.91-8.22-16.41-12.28a22.26,22.26,0,0,1-8.3-12,109.77,109.77,0,0,0-4.67-12.18C268.69,350.92,273.7,354.54,278.43,358.5Z"/><path class="cls-78" d="M250.42,416.75l-2.87-6.32c-2.18-9.44,1.89-18,4-26.77,2.39-1.21,3.24.53,3.73,2.22a14.6,14.6,0,0,1,1,5.12c-.07.87,0,1.67,1.28,1.38-.06,2.49,2.29,4.12,2.35,6.57-.92-1-1.6-1.1-2.18.38a52.61,52.61,0,0,1-7,13.27C249.59,414,251.32,415.43,250.42,416.75Z"/><path class="cls-79" d="M293.57,382.94c1.66-1.4-.11-2.07-.72-2.79-2-2.41-4.22-4.71-6.35-7-1.25-1.41-2.16-3.06-3.27-4.57-1.26-1.7-.86-2.2,1.54-2.56,8.5,9.78,17.25,19.35,25,29.74,2.76,3.67,6.35,6.48,9.82,9.42,1.05.9,2,1.19,3.2.35.06,1.6-.83,2.84-1.56,4.14-4.11-1.62-6.89-5-10.09-7.79a98,98,0,0,1-14.22-15Z"/><path class="cls-80" d="M322.83,405.5c0-2.06-1.31-3.43-2.7-4.72A38,38,0,0,1,312,389.44c-3.58-7.28-9.24-12.73-15.46-17.7-.92-.73-2.09-1.23-2.57-3.18,8.26,4,14.56,9.42,18.94,17,2.47,4.29,4.95,8.58,7.59,12.77.87,1.38,1.7,3.16,3.88,3A8.18,8.18,0,0,1,322.83,405.5Z"/><path class="cls-81" d="M297,386.84c.24-.35.41-1.45.89-.76,6.19,9,15.3,15,23,22.44a3.11,3.11,0,0,1,.45,1.1c-.36.95-.73,1.91-1.1,2.86-2,1.09-2.51-.89-3.38-1.84-4.33-4.72-8.58-9.51-12.86-14.28-.8-.9-1.55-1.95-3-1.24C300.15,392.09,298.41,389.53,297,386.84Z"/><path class="cls-82" d="M277.49,430.44c.49.16,1.23.49,1.4-.09,1.31-4.36,5.32-6.93,7.17-11,.54-1.18,1.79-3.4,3.56-1.87,1.36,1.18.23,3-.9,4.2a57.66,57.66,0,0,0-7.71,10.2,7.24,7.24,0,0,0-1,3.35A14.47,14.47,0,0,1,277.49,430.44Z"/><path class="cls-83" d="M257.5,392.38c-.46,1.17-.05,2.73-1.73,3.6-2-3.92,1.13-9.59-4-12.36l-.42-.35c-.78-2.41-1.17-5-2.51-7.18a2.87,2.87,0,0,1,1.4-3.08,50.28,50.28,0,0,0,5.33,9.07C256.34,385.49,257.56,388.81,257.5,392.38Z"/><path class="cls-84" d="M270.28,423.26c-.16,2.34-1.8,3.84-3.2,5.44-.85,1-2.37,1.2-2.16-.42.48-3.71.27-7.72,3-10.81Z"/><path class="cls-85" d="M342.25,254a54.58,54.58,0,0,1,8.39,16.6C346.62,265.64,344.47,259.77,342.25,254Z"/><path class="cls-86" d="M145,255.82a40.82,40.82,0,0,1-7.48,13.7C139.39,264.64,141.12,259.68,145,255.82Z"/><path class="cls-87" d="M224.14,430.6q-3.85-6.64-7.72-13.29A20.1,20.1,0,0,1,218,404.58c1.19-2.65,2.12-2.37,3.69-.62,6.06,3.67,9.36,9.43,11.9,15.77.26,2.53,1.54,4.83,1.7,7.14.25-1.39-1.06-2.76-.84-4.4-.46-3.56-2.33-6.5-4.07-9.5-1.13-2-2.62-3.74-2.74-6.15,1.14-4.1,2.19-8.23,3.28-12.35.42-1.56.82-3.13,2.57-3.8.82-.09,1,.56,1.34,1.1,2.49,5.63,4.83,11.33,7.52,16.85,2.47,5.09,2.62,9.93,0,15-1.85,3.55-3.37,7.28-5,10.94-2.7,3.61-3.09,8.1-4.61,12.68-2.2-2.49-2.16-5.78-4.38-7.71-1.14-1.77-2.27-3.56-2.42-5.75.74-4.46,3.12-8.78,1-14.45-.35,3.3,0,5.66-.35,8C226.33,428.72,226.57,430.68,224.14,430.6Z"/><path class="cls-88" d="M185.64,368.33c12-4,23.16-9.17,30.86-20,1.59,8.69-4,19.77-12.29,24.65-5.77,3.38-11.79,6.37-17,10.63-2.17.95-1.95-.49-1.55-1.69.65-1.95,2.1-3.41,3.44-4.91,2.74-3.07,6-5.59,8.9-8.48-5,3.05-8.88,7.26-12.45,11.75-4.42,5.56-9.06,11-13,16.88a22.13,22.13,0,0,1-8.6,7.08c-1.73.88-3.62,2-5.58.32a2.67,2.67,0,0,1-.15-.68c-1-1.48-.91-3.17.61-3.85,3.71-1.68,5.65-5.78,9.7-6.89.17-.05.53.19.49,0-1-6.25,2.79-10.37,6.44-14.53C178.59,375,182.52,372.05,185.64,368.33Z"/><path class="cls-89" d="M210.61,412.69c-1.38,2.17-1,5-2.92,7.58-5.5-9.84-10.75-19.35-9.18-31,.85-3,3-5.06,5.52-6.65,4.6-2.89,9.27-5.67,14.44-8.81-1.35,9.74-2.48,19-4.93,28C212.56,405.46,211,408.92,210.61,412.69Z"/><path class="cls-90" d="M156.68,399a25.59,25.59,0,0,1-.14-13.09c2.22-9.47,8.9-13.84,17.81-15.67,2.35-.48,4.74-.8,7.11-1.19,3.06-.49,2.11,1.29,1.13,2.38-1.7,1.88-3.55,3.64-5.42,5.36a29.78,29.78,0,0,0-8.1,12.26c-1.63,4.65-5.14,7.66-9.09,10.25C158.9,400,157.61,400.9,156.68,399Z"/><path class="cls-91" d="M158.32,404.56c6.9-.78,11.13-5.37,14.84-10.58a177.17,177.17,0,0,1,20.34-24.32,10.58,10.58,0,0,1,8.17-3.28c-1.23,2.66-3.34,4.11-5.24,5.69a79,79,0,0,0-9.77,10.09c-.73.86-.7,1.36.54,1.45l-5.53,6.55c-2.81,1.77-3.68,5-5.69,7.45-4.41,5.29-10,8.63-16.21,11.09l-1.6-3.19Z"/><path class="cls-92" d="M234.8,391.77l-.78-.85c-2.68-1.45-2.42-4.7-4.13-6.74-1.29-2.83-2.32-5.77-3.81-8.51,0-4.42-.36-8.68-5-11.08-.34-.18.14-.93.65-1.2a.94.94,0,0,0,1.4.12c2.33-2.12,3.93-1.21,5.34,1.15a4.16,4.16,0,0,0,2.34,2.07c4.54,6,7.18,12.92,8.93,20.2a2.14,2.14,0,0,1-1,1.59C238.38,390.73,234.46,388.63,234.8,391.77Z"/><path class="cls-93" d="M226.08,375.67c2.07-1.05,1.68,1.06,2.1,1.8,1.07,1.93,1.87,4,2.78,6a12.23,12.23,0,0,1-.49,6.64c-1.13,3.52-2.73,6.91-3.15,10.66a2.87,2.87,0,0,1-1.75,2.49.92.92,0,0,1-1.07-.55c-3.17-2.57-3.87-5.76-2.71-9.63C223.51,387.38,225.58,381.71,226.08,375.67Z"/><path class="cls-94" d="M159.77,408.7a2.7,2.7,0,0,1,1.86-2.36c7-2.44,11.78-7.56,16.11-13.3.91-1.2,1.4-3.64,3.93-2.88q-1.3,3.55-2.62,7.11c-5.36,6.1-10.54,12.41-17.47,16.88C161,412.33,160.37,410.52,159.77,408.7Z"/><path class="cls-95" d="M156.68,399c5.45-.53,8.67-4.54,10.42-8.73a48.94,48.94,0,0,1,14.39-19.41c.84-.69,1.58-1.23,0-1.81,1.3-.84,2.74-.72,4.18-.67.93,2.1-1,2.8-2,3.88-4.91,5.23-11.31,9.45-13.26,16.81-1.49,5.59-5.44,8.48-9.86,11.12-1.55.92-2.52,1.89-2.36,3.74C155.91,402.77,156.83,400.7,156.68,399Z"/><path class="cls-96" d="M224.5,402.75a.9.9,0,0,1,.7.21c2.18.5,2.79,2.22,3.14,4.12,2.82,4.9,6.71,9.29,7.29,15.26-2.34.86-2.51-1.11-3.18-2.43-2.42-6.11-7.14-10.67-10.79-16C222.86,404.16,224,404.14,224.5,402.75Z"/><path class="cls-97" d="M231.2,166a12.77,12.77,0,0,1-.06,3.61c-.65,2,2.33,5.78-2.88,5.73-6.87-.07-9-1-8.69-6,.38-6.9-2.66-11.73-7.5-16.09-11-9.89-17.13-21.9-15.54-37.11a42.28,42.28,0,0,1,50.53-36.93c27,5.47,42.46,30.08,34.6,55a39.72,39.72,0,0,1-12,17.82c-5.85,5.19-10.46,10.8-9.93,19.22.14,2.18-1.45,3.17-3.22,3.5-2.2.42-4.5.84-6.67-.08-.32-.13-.33-1.19-.33-1.83.05-8.74.25-17.38,3.28-25.84,1.15-3.21,1.58-6.46,4.52-8.69a2.45,2.45,0,0,0,.65-3.3c-1.05-1.38-2.49-.63-3.56.21-1.26,1-2.37,1.3-3.36-.18s-3.1-2.85-1.93-5.24a12.86,12.86,0,0,1,1.16-1.64c1.21-1.69,1.69-3.49,0-5.08a3.56,3.56,0,0,0-5.13,0c-2.35,2.32-5.09,2.35-8,2.28-2,0-2.69,1.19-2.23,2.89,1.26,4.6-2.57,6-5,8.23-1.34,1.2-1.72-.59-2.42-1.18-1.29-1.11-2.65-1.35-4-.26s-.9,2.39-.06,3.58C229.17,146.82,231.16,156.12,231.2,166Z"/><path class="cls-98" d="M241.64,143.44c1,0,1.56,0,2.09,0,5.36.35,6,1.06,3.94,5.86-3,7.2-2.63,14.74-2.61,22.25,0,2.56-.3,4.26-3.42,3.69-2.37-.43-5.82,1.51-5.72-3.55.17-8.18.36-16.46-3.54-24.07-.86-1.68-.22-2.38,1.42-2.9A30.17,30.17,0,0,1,241.64,143.44Z"/><path class="cls-99" d="M229,141.24q6.19-5.88,12.39-11.74c1-.91,1.74-1.4,2.82.18,2,3,4.37,5.71,6.6,8.53,1.13,1.42-.08,2.28-1,2C242.8,138,236,139.27,229,141.24Z"/><path class="cls-100" d="M248.77,126.43c-.18.87-.24,2-1.49,1.79-.89-.13-1-1.08-1-1.87,0-1,.31-1.87,1.52-1.74S248.64,125.7,248.77,126.43Z"/><path class="cls-101" d="M309.88,263.63c3.28,3,2.89,7.75-.92,12.78A35.63,35.63,0,0,0,309.88,263.63Z"/><path class="cls-102" d="M179.47,264.21c-.2,4.72-1.53,8.76-.18,12.8C176.2,273.19,176.2,268.72,179.47,264.21Z"/><path class="cls-103" d="M251.74,383.62c.73,2.95,0,5.68-.82,8.55-1.39,4.76-3.63,9.47-1.91,14.75a3.47,3.47,0,0,1-1.46,3.51c-3.31-5.51-4.24-11.87-6.35-17.81a1.76,1.76,0,0,1-.23-1.52c1.07-3.07,7.36-7.38,10.82-7.44Z"/><path class="cls-104" d="M254.2,445.74l-7.41-25.07c.61-1.63,1.22-3.15,2.89-.71.8,1.18,1.75,2.26,2.64,3.38,1.24,2.2,2.47,4.4,3.73,6.58C259.38,435.66,257.92,440.83,254.2,445.74Z"/><path class="cls-78" d="M251.79,383.66c-3.82,2.64-7.86,5-10.59,9-.69-1.43-2.15-2.41-2.41-4.1l0-1.65a43.27,43.27,0,0,1,6.82-8.33c1.1-.94,2-2.18,3.7-2.1C253.2,377.83,252,380.91,251.79,383.66Z"/><path class="cls-105" d="M249.35,376.44c-2.66,3.81-6.71,6.4-9.1,10.46-.12.2-.93,0-1.42,0a161.61,161.61,0,0,0-7-16.36,6.62,6.62,0,0,1-1-3.78c3.84-1.49,5.76-5.21,8.81-7.62.95-.75,1.52-2.39,3.19-1.2,1.77,3.57,3.21,7.31,5.61,10.55.59,1.52,1.18,3,1.76,4.55C249.93,374.16,249.64,375.3,249.35,376.44Z"/><path class="cls-106" d="M340.47,398.17c-.52-6.31-.57-12.76-5.09-18,6,4.61,6.93,11.08,6.75,18Z"/><path class="cls-107" d="M224.14,430.6c1.93-3.22.56-6.78,1-10.15.19-1.37-.32-3.44,1.47-3.64,1.56-.16,1.25,2,1.93,3.05,2.92,4.35-1.37,8.25-.59,12.27.58,2.94-1.64.86-2.11,1.64A5.53,5.53,0,0,1,224.14,430.6Z"/><path class="cls-108" d="M284.77,366c-2.26.6-1.45,1.83-.53,2.94a9.39,9.39,0,0,1,2.26,4.19c-4.68-4-7.34-9.55-11.56-14.74l3.44,1.09C280.48,361.65,283.58,362.87,284.77,366Z"/><path class="cls-109" d="M228.34,407.08Q226.77,405,225.2,403c.9-6.78,3.83-13,5.76-19.45a21.35,21.35,0,0,1,3.06,7.41c-2.36,2.92-2.06,6.68-3.12,10C230.22,403.08,229.72,405.25,228.34,407.08Z"/><path class="cls-110" d="M232.45,419.91l3.18,2.43c.55,3.05,1.32,6.1-.51,9.32Z"/><path class="cls-111" d="M250.12,87.55c-21.13-1-39,9.62-44.22,32.31-2.4-3.84-2.11-7.62-1.22-11.33,3.8-15.86,21.58-26.55,38.16-23C245.3,86.06,247.7,86.87,250.12,87.55Z"/></svg>