<svg id="Layer_1" data-name="Layer 1" xmlns="http://www.w3.org/2000/svg" viewBox="0 0 947.45 335.89"><defs><style>.cls-1{fill:#27382e;}.cls-2{fill:#f8fbf9;}.cls-3{fill:#f9fbf9;}.cls-4{fill:#f9fbfa;}.cls-5{fill:#f7fbf8;}.cls-6{fill:#f9faf8;}.cls-7{fill:#f8faf7;}.cls-8{fill:#f9faf9;}.cls-9{fill:#f7f9f7;}.cls-10{fill:#b49a72;}.cls-11{fill:#b4a077;}.cls-12{fill:#b7a077;}.cls-13{fill:#f8fcfa;}.cls-14{fill:#f4f8f3;}.cls-15{fill:#f4f7f3;}.cls-16{fill:#f5f8f5;}.cls-17{fill:#f2f7f2;}.cls-18{fill:#f1f6f3;}.cls-19{fill:#f2f7f3;}.cls-20{fill:#f3f8f4;}.cls-21{fill:#f2f8f4;}.cls-22{fill:#eef1ee;}.cls-23{fill:#e7ede8;}.cls-24{fill:#f3f7f4;}.cls-25{fill:#f3f8f5;}.cls-26{fill:#f0f7f3;}.cls-27{fill:#f1f8f4;}.cls-28{fill:#e7eee8;}.cls-29{fill:#f1f7f4;}.cls-30{fill:#edf3f0;}.cls-31{fill:#e9f1ec;}.cls-32{fill:#f4f7f2;}.cls-33{fill:#eff8f1;}.cls-34{fill:#26392e;}.cls-35{fill:#25382e;}.cls-36{fill:#24372a;}.cls-37{fill:#293a30;}.cls-38{fill:#22372b;}.cls-39{fill:#23392c;}.cls-40{fill:#27382f;}.cls-41{fill:#242e28;}.cls-42{fill:#25332c;}.cls-43{fill:#293a33;}.cls-44{fill:#38413c;}.cls-45{fill:#fbfbfb;}.cls-46{fill:#fbfbfa;}.cls-47{fill:#f8faf8;}.cls-48{fill:#fafbfa;}.cls-49{fill:#3b3326;}.cls-50{fill:#f7f9f8;}.cls-51{fill:#f7faf8;}.cls-52{fill:#f8faf9;}.cls-53{fill:#3c3427;}.cls-54{fill:#f3f6f3;}.cls-55{fill:#f6f8f6;}.cls-56{fill:#f4eadd;}.cls-57{fill:#9b8464;}.cls-58{fill:#f6faf7;}.cls-59{fill:#f0e8de;}.cls-60{fill:#383a2d;}.cls-61{fill:#f1f5f2;}.cls-62{fill:#cbc2b5;}.cls-63{fill:#e5e1d6;}.cls-64{fill:#cad0c7;}.cls-65{fill:#979483;}.cls-66{fill:#b2ac9d;}.cls-67{fill:#dce1df;}.cls-68{fill:#cfc4af;}.cls-69{fill:#e6e1d8;}.cls-70{fill:#dce2e0;}.cls-71{fill:#aab7ae;}.cls-72{fill:#857967;}.cls-73{fill:#9b9a8b;}.cls-74{fill:#ccd6ce;}.cls-75{fill:#dadfdc;}.cls-76{fill:#cdc1af;}.cls-77{fill:#717973;}.cls-78{fill:#ab9686;}.cls-79{fill:#ecf5ef;}.cls-80{fill:#5d5142;}.cls-81{fill:#c3b7a4;}.cls-82{fill:#c2c2b6;}.cls-83{fill:#ac9f90;}.cls-84{fill:#acb7af;}.cls-85{fill:#919590;}.cls-86{fill:#626b66;}.cls-87{fill:#cad8cf;}.cls-88{fill:#a7a99b;}.cls-89{fill:#c9d5cd;}.cls-90{fill:#7d8280;}.cls-91{fill:#949485;}.cls-92{fill:#94a098;}.cls-93{fill:#94a39a;}.cls-94{fill:#5b635d;}.cls-95{fill:#cbd6ce;}.cls-96{fill:#b7c2bb;}.cls-97{fill:#90907f;}.cls-98{fill:#948d7c;}.cls-99{fill:#818171;}.cls-100{fill:#737974;}.cls-101{fill:#e5e1d5;}.cls-102{fill:#94a299;}.cls-103{fill:#d2cfc3;}.cls-104{fill:#aca79a;}.cls-105{fill:#7e8173;}.cls-106{fill:#a4a496;}.cls-107{fill:#96a39a;}.cls-108{fill:#a8afa3;}.cls-109{fill:#a3b2a8;}.cls-110{fill:#6c716f;}.cls-111{fill:#929588;}.cls-112{fill:#7f8d84;}.cls-113{fill:#85948b;}.cls-114{fill:#8c9d93;}.cls-115{fill:#312c20;}.cls-116{fill:#3b2d22;}.cls-117{fill:#33362b;}.cls-118{fill:#2f2a1e;}.cls-119{fill:#715b47;}.cls-120{fill:#7e6e59;}.cls-121{fill:#867866;}.cls-122{fill:#403222;}.cls-123{fill:#816b5a;}.cls-124{fill:#392d1e;}.cls-125{fill:#453d2c;}.cls-126{fill:#787878;}.cls-127{fill:#646764;}.cls-128{fill:#362f24;}.cls-129{fill:#332c20;}.cls-130{fill:#423122;}.cls-131{fill:#2e3025;}.cls-132{fill:#8c7761;}.cls-133{fill:#c4b79d;}.cls-134{fill:#382f23;}.cls-135{fill:#373025;}.cls-136{fill:#7c6c5a;}.cls-137{fill:#d8c5b3;}.cls-138{fill:#28392f;}.cls-139{fill:#2b3e33;}.cls-140{fill:#31423a;}.cls-141{fill:#454c48;}.cls-142{fill:#7e817e;}.cls-143{fill:#8c908d;}.cls-144{fill:#2f2c20;}.cls-145{fill:#3b3227;}.cls-146{fill:#372d21;}.cls-147{fill:#807265;}.cls-148{fill:#74614e;}.cls-149{fill:#5a4d3d;}.cls-150{fill:#756048;}.cls-151{fill:#776451;}.cls-152{fill:#f6f9f4;}</style></defs><path class="cls-1" d="M946.91,872.58H-9.15c-.87-1.62-.45-3.37-.45-5.05q0-474.1,0-948.22c0-1.68-.42-3.43.45-5H946.91c.87,1.62.44,3.37.44,5q0,474.11,0,948.22C947.35,869.21,947.78,871,946.91,872.58Z"/><path class="cls-1" d="M1812.7,639.47H856.64c-.87-1.62-.44-3.37-.44-5.05q0-474.1,0-948.21c0-1.69-.43-3.44.44-5.06H1812.7c.87,1.62.44,3.37.44,5.06q0,474.11,0,948.21C1813.14,636.1,1813.57,637.85,1812.7,639.47Z"/><path class="cls-2" d="M659.1,112.89c4.86-9.65,10.81-18.83,16.45-28.21,1.5-2.5,9.24-4.35,11.59-2.8,1.2.79.75,2,.76,3.09,0,16.53-.16,33.06.09,49.58.08,5.18-3.26,3.5-5.82,3.81-2.91.36-4.24-.29-4.16-3.8.27-11.28.1-22.57.1-34.28-2.33.6-2.88,2.41-3.67,3.81-4.25,7.63-8.48,15.27-12.58,23-1.85,3.46-3.28,3.81-5.49.21-5.41-8.82-9.9-18.21-16-26.63-1.8.79-.92,2.29-.94,3.39-.17,10.21-.47,20.42-.23,30.62.11,4.47-2.42,3.88-5.18,4-3.08.15-5.07,0-5-4.17.24-15.88,0-31.76.14-47.64,0-1.74-1.55-5,1.69-5s7.34-2.29,10,2.27c5.18,9,10.66,17.75,16.05,26.59C657.31,111.47,657.48,112.57,659.1,112.89Z"/><path class="cls-3" d="M425,139.22c-18,0-30.77-12.59-30.74-30.33,0-16,13.06-28.33,30-28.32,17.21,0,30.31,12.9,30.32,29.82C454.58,126.55,441.59,139.2,425,139.22Z"/><path class="cls-4" d="M380.18,110.19c0,16.62-12.51,29.08-29.22,29.13-17.65.06-30.49-12.38-30.49-29.51,0-16.93,12.5-29.27,29.57-29.22S380.2,93.55,380.18,110.19Z"/><path class="cls-5" d="M763.27,110.12c0-8.27,0-16.53,0-24.8,0-1.63-.66-3.81,2.33-3.68,9,.39,18.17-.91,27.14.9,15.06,3,23.2,14.26,22,30.07-1.09,14.55-11,24.49-25.77,25.34-7.43.43-14.9.12-22.35.36-2.71.09-3.21-1-3.17-3.41.1-8.26,0-16.52,0-24.78Z"/><path class="cls-6" d="M306.78,138a9.85,9.85,0,0,1-1,.49c-7.18,1.22-12.41-.9-15.3-8.11-1.31-3.26-4.2-5.91-5.35-9.2-2.07-5.89-6.63-5-11.07-5-2.61,0-2.16,1.87-2.17,3.41,0,5.18-.23,10.37.07,15.54.18,3.17-1.36,3.78-3.71,3.21s-6.3,2.29-6.26-3.19q.21-25.27.15-50.54c0-2.36.81-3,3.08-3,7.77.17,15.56,0,23.31.33A17.56,17.56,0,0,1,305,95.32c1.7,7.53-1.43,14.55-8.93,18.66-3.09,1.69-3.39,2.85-1.37,5.7C298.92,125.57,302.7,131.75,306.78,138Z"/><path class="cls-6" d="M908.76,138.53c-4.11,1.22-5.75-1.94-6.63-5.33-1.46-5.66-4.65-7.63-10.47-7a84.71,84.71,0,0,1-15.52,0c-3.56-.26-5.44,1-6.31,4.3a23.57,23.57,0,0,1-1.33,3.12,9.5,9.5,0,0,1-11.68,5c-1.92-.67-.87-1.71-.45-2.63,7.73-17.27,15.56-34.49,23.16-51.81,1.59-3.6,4.41-2.38,6.93-2.74s3.73.72,4.72,3c7.05,16.34,14.25,32.61,21.37,48.91C914.88,138.68,914.85,138.69,908.76,138.53Z"/><path class="cls-7" d="M707.37,109.73c0-8.1.1-16.19,0-24.29-.05-2.82.54-3.92,3.72-3.85q16,.34,32,0c3.27-.08,3.87,1.21,3.56,3.93-.26,2.29,1.17,5.25-3.4,5-7.43-.34-14.89,0-22.33-.18-2.72-.06-3.57.75-3.64,3.54C717,105,716.88,105,727.91,104.94c3.89,0,7.78.1,11.65-.12,3.57-.2,2.8,2.19,2.82,4.18s.52,4.26-2.94,4.14c-6.31-.22-12.63,0-18.93-.18-2.5-.07-3.29.64-3.35,3.25-.29,13.44-.37,13.43,12.76,13.48,4.69,0,9.39.26,14.08.06,4.15-.18,3,2.65,3.23,4.88.23,2.45-.15,3.91-3.24,3.85q-16.74-.27-33.5-.1c-2.76,0-3.17-1-3.14-3.4.1-8.42,0-16.83,0-25.25Z"/><path class="cls-8" d="M559.07,139.34a29.48,29.48,0,0,1-17.75-5.5c-1.47-1.07-4.6-2.53-2.25-4.66,1.89-1.72,3.35-6.74,7.88-2.8a17.77,17.77,0,0,0,13.11,4.08c4.38-.28,8.07-1.86,9-6.56,1-5.07-2.67-7.31-6.49-8.93-3.41-1.44-7.08-2.24-10.57-3.51-9.74-3.53-14-9.74-12.49-18.06,1.37-7.66,8.58-12.63,18.23-12.74a23.54,23.54,0,0,1,15.38,4.91c1.37,1.07,4.09,2,1.63,4.34-1.72,1.65-2.81,5.22-6.51,2.52a17.08,17.08,0,0,0-11.94-3.12c-3.2.3-5.65,1.59-6.47,4.86s.93,5.58,3.64,7.2c3.94,2.36,8.48,3.15,12.65,4.87,7.3,3,13,7.41,13.15,16.19C579.46,132.26,570.82,139.43,559.07,139.34Z"/><path class="cls-9" d="M495.72,81.57c7.61,0,15.24.26,22.83-.11,3.92-.19,3.58,1.89,3.62,4.43s.05,4.75-3.72,4.45c-4.51-.36-9.08,0-13.6-.29-3.17-.24-3.71,1-3.69,3.83.12,13.12-.19,26.25.13,39.36.1,4.52-1.47,5.23-5.53,5.32-4.24.11-4.64-1.64-4.61-5.1.13-13.13-.08-26.25,0-39.37,0-3.06-.66-4.3-4-4.07-4.35.3-8.75-.18-13.11.11-3.81.26-4.45-1.38-4.59-4.8-.16-3.72,1.63-3.77,4.35-3.73,7.28.11,14.57,0,21.86,0Z"/><path class="cls-10" d="M595,170.15c-.63,6.71,1.43,12.09,2.32,17.62,1.18,7.38,1.06,14.54-3.3,21-.42.62-1,1.15-2.18,2.55,1.13-4.44,2.39-7.78,2.77-11.22.83-7.51-1.48-14.4-5.23-20.84-.47-.8-1.13-2-1.84-2.05-1.4-.21-1.56,1.37-2,2.32-5.42,10.37-5.13,20.81-.44,31.35,2.09,4.69,3.92,9.49,3.64,14.81-3.32-11.66-12.35-21.4-11.28-34.57.44-5.34,1.48-10.56,2.41-15.82.2-1.11.76-2.53-.14-3.23-1.34-1.05-2.35.53-3.27,1.23-6.8,5.15-14.43,9.46-18.51,17.49-.55,1.09-1.14,2.13-2.54,1.44a4,4,0,0,1-2.5-3.82c.05-2.74,1.85-4.46,3.61-6.08,8.6-7.89,18.12-14.66,27.23-21.92a5.1,5.1,0,0,1,6.63-.35c9.85,6.56,19.43,13.48,27.63,22.09,1.93,2,4.35,4.21,2.75,7.63a3.73,3.73,0,0,1-2.79,2.47c-1.39.16-1.88-1.17-2.33-2.14C611.4,181.11,603.12,176.43,595,170.15Z"/><path class="cls-11" d="M851.81,187.88c-32.57,1.5-64.93,1.53-97.29,1.86-34.62.35-69.26.24-103.86,1.75-4.1.18-5.25-1-5.17-5.08s2.11-3.92,5-3.82c20.21.7,40.43,1.42,60.64,1.94q68.67,1.75,137.34,3.34C849.56,187.9,850.69,187.88,851.81,187.88Z"/><path class="cls-12" d="M323.19,188c21.32-.48,42.64-.86,63.95-1.44q69.44-1.92,138.86-4.06c3.08-.09,4.73.07,4.63,3.89-.09,3.65-.86,5.11-4.91,5-49.54-1.62-99.09-1.67-148.64-2-18-.14-35.92,0-53.88,0Z"/><path class="cls-13" d="M840.93,110.41c0,8.24-.21,16.49.09,24.72.17,4.56-2.8,3.37-5.13,3.46s-5.09.95-5-3.47q.25-25-.17-49.92c-.09-4.93,3.08-3.33,5.44-3.49s5.09-.9,4.91,3.5C840.68,93.6,840.92,102,840.93,110.41Z"/><path class="cls-14" d="M482.9,272.35a13.47,13.47,0,0,1-14-13.47c-.17-7.94,5.89-14,14-14,7.81,0,14.47,6.29,14.59,13.81S491.11,272.25,482.9,272.35Z"/><path class="cls-15" d="M452.06,245a14.29,14.29,0,0,1,14.22,14.21c0,7.11-6.83,13.18-14.72,13.19a13.54,13.54,0,0,1-14-14.18C437.76,250.63,444.05,244.88,452.06,245Z"/><path class="cls-16" d="M714.36,254.26c0,5.65,0,10,0,14.28,0,1.72,0,3.24-2.42,3.3s-2.39-1.5-2.38-3.21c0-6.63,0-13.27.05-19.9,0-1.21-.48-2.73,1.18-3.33,1.84-.65,3,.35,4.12,1.71,4.23,5.24,8.51,10.44,13.46,16.5,0-5.82,0-10.55,0-15.28,0-1.58-.37-3.22,2.23-3.33,2.92-.13,2.55,1.69,2.54,3.46,0,6.47,0,12.94-.17,19.41,0,1.44.9,3.59-1.12,4.26s-3.16-1.17-4.31-2.5C723.44,264.86,719.35,260.09,714.36,254.26Z"/><path class="cls-17" d="M312,258.4a16.61,16.61,0,0,1,0-2.91c.6-3.36-1.84-8.85,1.3-9.74,5.18-1.47,11.34-1.46,16.41,1.87a13.52,13.52,0,0,1,5.68,14.45c-1.24,5-6,8.9-11.61,9.63-11.93,1.56-11.93,1.56-11.83-10.39,0-1,0-1.94,0-2.91Z"/><path class="cls-18" d="M686.1,271.57c-3.56,1.17-5.69.23-6.79-2.94a8.23,8.23,0,0,0-.95-1.68c-1.47-2.36-2.16-6.1-6-5.16s-1.23,4.34-1.75,6.57c-.38,1.64.36,3.59-2.51,3.64s-2.42-2-2.42-3.61c0-6.62.15-13.24,0-19.86,0-2.41,1-3.15,3.13-3.1,3.23.07,6.47-.06,9.67.24,3.57.34,5.81,2.53,6.89,5.94s.51,6.06-2.7,7.9c-1.78,1-1.88,2.32-.9,4C683.28,266,684.55,268.63,686.1,271.57Z"/><path class="cls-19" d="M435.08,271.49c-3,1.14-4.92.42-6.13-2.27-.73-1.62-1.69-3.14-2.35-4.79-1-2.48-2.94-2.83-5.15-2.43-2.44.45-1.41,2.51-1.58,3.95a33.46,33.46,0,0,0-.07,3.88c0,1.94-1.36,1.83-2.68,1.87s-2.11-.48-2.1-1.94q.08-11.16.1-22.32a1.81,1.81,0,0,1,2.08-2c4,.07,8.12-.63,12.08.46,4.87,1.33,8,8.12,4.65,11.58-4.24,4.36-2.19,7.62-.05,11.42C434.33,269.67,434.66,270.55,435.08,271.49Z"/><path class="cls-20" d="M789.11,258.34c1.33.29,5-.29,4.72.69-1.08,3.39.28,7.52-2.91,10.3-4.8,4.19-14.06,3.74-19.25-1-4.46-4.11-5.27-11.87-1.76-16.89,4.36-6.23,12.48-8.68,18.32-5.41,1.59.89,4,1.77,2.82,4.27-1.56,3.3-3.26.08-4.66-.39-4.5-1.52-8.47-.88-11.51,2.64-2.87,3.32-2.36,7.31-.49,10.95,2.08,4.05,5.84,4.77,10,4.18,2.08-.29,3.89-1.16,4-3.51.13-2.94-2.26-1.44-3.55-1.65s-2.15-.44-2.08-2c.06-1.35.58-2.14,2-2.15Z"/><path class="cls-19" d="M360.56,258.07c0-3.24.11-6.49,0-9.72-.09-2.11.18-3.35,2.78-3.23,4,.18,8.09.08,12.14,0,1.6,0,2.89.09,2.82,2.25s-1.45,2.16-3,2.15c-2.1,0-4.21.06-6.31,0s-3.7-.05-3.56,3c.12,2.65.33,4.43,3.63,4.08a49.15,49.15,0,0,1,5.82,0c1.32,0,2.13.49,2.09,2s-.92,1.88-2.21,1.88a31.41,31.41,0,0,1-4.85,0c-4.23-.67-4.75,1.64-4.61,5,.09,2,.85,2.35,2.66,2.25,2.91-.17,5.83,0,8.74,0,1.63,0,2.33.72,2.28,2.37-.05,1.47-.81,2-2.14,2-4.69,0-9.39-.09-14.08,0-2.11,0-2.3-1.26-2.29-2.85,0-3.72,0-7.45,0-11.17Z"/><path class="cls-21" d="M819.6,258.79c0,3.56,0,7.12,0,10.68,0,1.55-.5,2.39-2.23,2.37s-2.3-.83-2.29-2.38a23.94,23.94,0,0,1,0-3.88c.85-4.92-1.31-5.93-5.88-5.54-7.13.6-7.15.31-7.21,7.37a23.52,23.52,0,0,1,0,2.91c-.21,1.66-1.57,1.27-2.63,1.31-1.7.06-2.18-1-2.18-2.49,0-7,0-13.91,0-20.87,0-1.88.7-2.52,2.53-2.63,2.24-.12,2.14,1.2,2.25,2.74.53,7.57.57,7.3,8.26,7.63,4.21.18,5.53-1.12,4.65-5.11a22.36,22.36,0,0,1-.13-3.39c-.16-2.3,1.55-2,3-2.16,1.69-.18,2.33.64,2.22,2.28-.12,1.94-.18,3.88-.21,5.82C819.57,255.23,819.6,257,819.6,258.79Z"/><path class="cls-22" d="M348.25,245.17c1.94,0,3.89.06,5.83,0,1.61-.07,2.85,0,2.82,2.16s-1.25,2.32-2.86,2.3c-2.11,0-4.22.16-6.31,0-2.54-.17-3.81.34-3.73,3.38.08,2.88,1.15,3.68,3.77,3.51,1.93-.13,3.88,0,5.82,0,1.29,0,2.16.33,2.12,1.9s-.76,2-2.11,2c-2.26,0-4.54.21-6.79.05-3.6-.25-2.6,2.3-2.85,4.22-.29,2.29.45,3.23,2.89,3s4.85,0,7.28-.08c1.47,0,2.49.29,2.51,2.1s-.76,2.34-2.34,2.28c-.32,0-.65,0-1,0-14.12.62-14.12.62-14.09-13.62,0-1.29,0-2.59,0-3.88C339.27,245.29,339.27,245.29,348.25,245.17Z"/><path class="cls-23" d="M619.18,258.85c.12-14.08.12-14.09,14.16-13.7,1.5,0,3.38-.63,3.37,2.08,0,2.49-1.66,2.35-3.31,2.35s-3.57,0-5.35,0c-2.18,0-4-.23-4,3.11s1.36,3.87,4.08,3.65c1.61-.13,3.24,0,4.86,0a1.82,1.82,0,0,1,2.07,2.05c0,1.8-1,2.15-2.47,2.09a42.37,42.37,0,0,1-4.37,0c-3.64-.55-4.32,1.23-4.15,4.41.11,2.26.61,3.17,3,2.9s4.85-.07,7.28-.14c1.45-.05,2.6.15,2.59,2,0,1.46-.36,2.57-2.12,2.56l-13.6-.05c-2.18,0-2-1.59-2-3.08Z"/><path class="cls-24" d="M381.91,258.54a31.68,31.68,0,0,1,0-4.36c.4-2.93-1.44-6.36,1.11-8.7,1.84-1.69,14,.14,15.87,2a8.24,8.24,0,0,1,2.34,8.88c-1.25,3.72-4.23,6.19-8,6-5.3-.27-7.35,1.47-6.43,6.73.34,1.93-.49,3-2.69,2.94-2.62,0-2.2-1.74-2.2-3.32q0-5.08,0-10.17Z"/><path class="cls-25" d="M638.55,270.4c1.07-2.93,2-5.67,3.09-8.36,1.85-4.66,3.82-9.27,5.67-13.92.65-1.65,1.51-2.76,3.48-2.74s2.23,1.4,2.81,2.78c2.89,6.85,5.92,13.64,8.78,20.5.41,1,1.79,2.58-.13,3.25-1.43.5-3.64.49-4-1.54-.88-4.56-4.11-4-7.39-4.1s-6.46.05-7.82,3.76c-.51,1.39-1.22,2.37-2.7,2.14A2,2,0,0,1,638.55,270.4Z"/><path class="cls-19" d="M745.27,272.36c-2.36.17-4.7-.92-6.83-2.46-1.19-.86-2.5-2.12-1.33-3.62a2.73,2.73,0,0,1,3.95-.26,6.43,6.43,0,0,0,6.73,1.39,3.1,3.1,0,0,0,2.48-3.17c0-1.44-.92-2.24-2.31-2.74-2.12-.77-4.43-.82-6.45-2-3.33-2-4.8-4.79-4-8.56.8-3.59,3.32-5.46,6.85-5.94a14.91,14.91,0,0,1,7.17.78,2.78,2.78,0,0,1,1.88,3.84c-.68,2.22-2.26,1.08-3.56.62a13.53,13.53,0,0,0-3.13-1.16c-1.76-.12-3.76-.08-4.32,2.17s.77,3.28,2.69,3.9c1.23.39,2.46.8,3.66,1.28,5.23,2.08,6.93,4.88,5.89,9.6C753.73,270.19,750.59,272.42,745.27,272.36Z"/><path class="cls-26" d="M586.66,244.83a11.42,11.42,0,0,1,8,2.67,2.54,2.54,0,0,1,1,3c-.73,1.57-2,.67-2.91.27-2.89-1.24-5.75-1.95-8.91-1.05a9,9,0,0,0-6.11,12.11c2,5.12,7.25,7.16,12.34,5.13,1.78-.71,4.17-4.53,5.69-.6,1.36,3.52-2.42,4.34-5,5.1-6.41,1.93-11.67-.07-16-5-3.57-4.05-3.52-8.64-1.6-13.15C575.64,247.54,580.42,244.89,586.66,244.83Z"/><path class="cls-19" d="M531.44,272.17a11.55,11.55,0,0,1-7.24-2.3c-1.23-.8-2.25-2.15-1-3.68,1-1.3,2.47-1.59,3.75-.25a5.32,5.32,0,0,0,3.84,1.76c2.25.07,4.57-.44,5.21-2.67.69-2.44-1.75-3.08-3.5-3.8-2.22-.91-4.61-1.47-6.47-3.13-2.47-2.21-3.84-4.81-2.71-8.17s3.55-4.8,6.94-5.07a13.6,13.6,0,0,1,7.87,1.83c1,.53,2.2.93,1.45,2.49a2,2,0,0,1-2.8,1.14c-1.82-.68-3.56-1.54-5.58-1.39-1.58.11-2.89.75-3.32,2.33s.62,2.5,1.75,3.14c1.82,1,3.73,1.9,5.63,2.79,3.57,1.66,6.51,3.89,5.81,8.37C540.46,269.25,536,272.17,531.44,272.17Z"/><path class="cls-27" d="M856,244.81a10.07,10.07,0,0,1,6.82,2c.71.55,1.7,1.24,1.06,2.38a2.17,2.17,0,0,1-2.55.86,46.67,46.67,0,0,0-5.16-1.14c-1.9-.18-3.59.46-3.95,2.68-.32,2,1,2.87,2.64,3.51a53.56,53.56,0,0,1,5.78,2.45c2.45,1.34,4.64,3,4.48,6.31a8.2,8.2,0,0,1-4.81,7.3c-4.22,2.17-8.14,1.28-11.8-1.37-1.05-.76-2.21-1.74-1.39-3.2s2.34-1.59,3.74-.67c1.94,1.27,3.89,2.31,6.34,1.64,1.68-.47,3.05-1.22,3.12-3.17.06-1.73-1.12-2.63-2.57-3.12-1.22-.41-2.51-.59-3.75-.93-4.53-1.27-7.14-4.71-6.69-8.77S851.21,244.87,856,244.81Z"/><path class="cls-28" d="M506.83,260.61a43.75,43.75,0,0,1,0-4.86c.48-4.36-.28-7.36-5.76-6.21-1.69.36-2.76-.35-2.69-2.38.06-1.83,1.1-2,2.55-2q8.51,0,17-.06c1.54,0,2.45.42,2.43,2.16s-.73,2.38-2.36,2.29a12.53,12.53,0,0,1-1.94,0c-3.92-.82-4.6,1.15-4.43,4.55.25,4.85.09,9.72.06,14.58,0,1.76.3,3.69-2.58,3.55s-2.4-2-2.38-3.79c0-2.59,0-5.18,0-7.77Z"/><path class="cls-29" d="M833.87,245.14c2.91,0,5.82.05,8.73,0,1.8,0,3.2.12,3.11,2.51s-1.54,2.21-3,1.92c-4.91-1-6.53.92-6,5.85.43,4.15.05,8.39,0,12.6,0,1.69.48,3.65-2.39,3.73-3.22.09-2.63-2.09-2.63-3.94,0-4.69-.2-9.4.17-14.06.28-3.56-1-4.68-4.32-4.23a29.43,29.43,0,0,1-3.39.05c-1.53,0-1.84-.9-1.85-2.2s.52-2.13,1.95-2.13h9.69Z"/><path class="cls-30" d="M599.66,258.59c0-3.23.1-6.45,0-9.67-.08-2,.1-3.26,2.64-3.37,2.84-.13,2.16,1.7,2.18,3.17,0,3.87,0,7.74,0,11.6,0,7.14,0,7.14,6.92,7.22l3.38,0c1.44,0,1.91.87,2,2.19a1.76,1.76,0,0,1-2,2.09c-4.35,0-8.7,0-13-.06-1.78,0-2-1.16-2-2.59,0-3.54,0-7.09,0-10.63Z"/><path class="cls-31" d="M763.89,258.46c0,3.55-.07,7.11,0,10.66.05,1.87-.61,2.6-2.51,2.58-1.73,0-2.69-.35-2.69-2.39,0-7.1-.05-14.21-.17-21.32,0-2.07.79-2.74,2.85-2.85,2.65-.13,2.35,1.54,2.36,3.14,0,3.39,0,6.79,0,10.18Z"/><path class="cls-32" d="M704.84,258.58c0,3.55-.06,7.1,0,10.64,0,2.12-.87,2.79-2.91,2.76-2.2,0-2.16-1.41-2.16-2.92,0-7.1,0-14.19,0-21.28,0-1.64.22-2.68,2.32-2.72s2.73.92,2.68,2.88c-.09,3.55,0,7.09,0,10.64Z"/><path class="cls-33" d="M556.77,259.64c3.54,0,7.07,0,10.61,0,1.55,0,2.43.48,2.45,2.16s-1.06,2.15-2.49,2.15c-7.07,0-14.14-.09-21.21-.09-1.8,0-2.68-.74-2.69-2.55,0-2.13,1.54-1.6,2.73-1.61,3.53,0,7.07,0,10.6,0Z"/><path class="cls-34" d="M444.45,110.09c0,11.17-9,20.25-19.89,20.08-11.58-.18-20.08-8.79-20.15-20.41s8.7-20.42,20.12-20.28S444.47,98.49,444.45,110.09Z"/><path class="cls-1" d="M330.51,109.77c.14-11.76,8.42-20.34,19.56-20.28a20.44,20.44,0,0,1,20.12,20.58,20,20,0,0,1-20.35,20.21C338.66,130.07,330.36,121.26,330.51,109.77Z"/><path class="cls-35" d="M772.75,109.77c0-5.18.16-10.36-.06-15.52-.12-2.85.49-4.21,3.66-3.94s6.46,0,9.69.17c11.34.45,18.61,8,18.61,19.31s-7.22,19-18.47,19.55c-3.38.17-6.79,0-10.17.25-2.61.17-3.29-.84-3.21-3.34.18-5.49.06-11,.06-16.48Z"/><path class="cls-36" d="M271.79,98.87c-.19-8.65-.19-8.66,8.6-8.59a50.84,50.84,0,0,1,6.77.22c4.53.64,7.58,4,7.64,8.06a8.56,8.56,0,0,1-7.34,8.85c-4.3.58-8.7.42-13,.7-2.28.15-2.71-1-2.64-2.93C271.84,103.08,271.79,101,271.79,98.87Z"/><path class="cls-37" d="M894.86,117.38c-5.92,0-11.36,0-16.8,0-1.77,0-2.91-.4-2-2.53,2.87-6.59,5.72-13.18,9-20.75A231.91,231.91,0,0,1,894.86,117.38Z"/><path class="cls-38" d="M483.28,249.78c5.46.05,8.87,3.4,8.87,8.67,0,5.64-3.83,9.52-9.35,9.49-5.31,0-9-4.14-8.83-9.95C474.07,252.88,477.66,249.72,483.28,249.78Z"/><path class="cls-39" d="M452,249.54a8.44,8.44,0,0,1,8.82,8.79,9.57,9.57,0,0,1-9.35,9.69c-4.79,0-8.74-4.37-8.76-9.69S446.35,249.54,452,249.54Z"/><path class="cls-40" d="M316.92,258.45a5,5,0,0,1,0-1.45c.79-2.38-1.93-5.78,1.55-7.23s9.41.81,11,4.13c1.72,3.55,1.81,7.26-1,10.4-2.58,2.9-6.15,3.38-9.8,3.11-3-.22-1.61-2.62-1.79-4.12a39,39,0,0,1-.05-4.84Z"/><path class="cls-41" d="M674.21,257.78c-3.73.88-3.56-1.58-3.79-4.47-.31-3.8,1.74-3.77,4.39-3.7,2.93.08,5.9.37,5.88,4.06C680.67,257.61,677.67,258.11,674.21,257.78Z"/><path class="cls-42" d="M423.53,258c-2.72.62-4-.43-3.87-3.79.11-2.84-.11-5.14,3.88-4.74,3.12.32,6.64-.1,6.67,4.36C430.24,258.07,426.86,257.88,423.53,258Z"/><path class="cls-43" d="M386.63,254.33c-.82-4,.88-5.22,4.65-4.91,2.75.23,5.26.26,5.3,4,0,3.28-2.82,5.23-7.15,5.44C385.36,259,386.86,256.18,386.63,254.33Z"/><path class="cls-44" d="M646.85,262c1.4-3.19,1.81-6.24,3.84-9,.52,1.18.92,2,1.29,2.92C654.87,262.81,654.87,262.81,646.85,262Z"/><path class="cls-45" d="M90.93,162.16c-3.54,1.3-4.69,4.47-5.51,7.61-1.69,6.5-3.76,12.78-8.22,18-1.75,2-3.46,4.13-5.87,5.47-1.1.62-1.93.82-1.73-1a42.55,42.55,0,0,0-.19-7.57c-.64-8.84,3.28-14.8,11.91-17.63a12.16,12.16,0,0,0,5.49-3.91c-2,.2-3.53.38-5.08.51-6.28.49-11.92-1.77-17.52-4.16-3.34-1.42-6.66-2.88-10.4-2.8A1.94,1.94,0,0,1,51.67,155c-.23-1.38,1-1,1.71-1.27,2.93-1,5.2-3,7.74-4.67,1.26-.8,2.34-2,4-2a20.86,20.86,0,0,1,6.69-.05,5.08,5.08,0,0,1,3.93,1.72c.5.76.08,1.12-.62,1.12a14.33,14.33,0,0,0-5.74,1.5c-1.88.8-3.89.2-5.73.89-2,.74-4.28,1-5.87,2.81,12.17,6.9,24.77,9.21,38.19,3.76-2.16-1.81-5.14-1-7.52-2.16,0-1,.61-.67,1.13-.55l1.88.13a52.16,52.16,0,0,0,10.15,0,39.47,39.47,0,0,1,11.52.92,103.44,103.44,0,0,0-12-5.74c-10.29-4.44-19.07-11.43-28.7-17-2.61-1.5-5-2.7-8.27-1.67-3,.92-5.43-.73-7.17-3.14a12.56,12.56,0,0,1-2.62-7.52c0-2.43,0-4.87.21-7.56C57,118,61,118.26,64.45,119.43A7.13,7.13,0,0,1,69,129.31l-2.25-2.68c-1.3-.16-1.85-1.4-2.74-1.94.77.72,1.83,1.35,2,2.65l.6.9c0,1.46-1.08,1-1.74,1a14.75,14.75,0,0,1-5.37-1.06c2.31,1.35,5.41.58,8.15,1.57.44,2,2.43,1.65,3.71,2.34,4.53,2.43,9.11,4.76,13.67,7.14a12.41,12.41,0,0,0,2.37,1c-6.43-9.5-6.91-19.77-4.32-30.44a44.11,44.11,0,0,0-.44,12.62c1.41,10.22,6.32,18,15.68,22.71A101.7,101.7,0,0,0,109,149.74a122.59,122.59,0,0,1,27.12,13.43c.6.41,1.25,1.23,2,.88s.33-1.35.34-2.06c.05-4.47,0-8.94.08-13.42,0-1.16.11-2.19-1.56-2.22a1.72,1.72,0,0,1-1.84-1.73c.09-1.29,1.33-.65,2-.68,2.44-.11,4.89-.11,7.34-.08.51,0,1.33-.28,1.44.52a1.51,1.51,0,0,1-.66,1.26c-2.07.89-1.65,2.63-1.64,4.28,0,4.39,0,8.78,0,13.17,0,.48,0,1.16.24,1.4.59.49,1.06-.17,1.5-.51a93,93,0,0,1,31.53-15.61c11.61-3.33,18.79-10.8,20.7-23a45.66,45.66,0,0,0-.09-13.36,14.61,14.61,0,0,1-.21-3.09c3,10.87,2.23,21.4-3.05,31.64,5.55-2.76,11.19-5.23,16.22-8.82.92-.19,1.93-.83,2.54.51-5.36,3.47-10.76,6.87-16.07,10.42a120.34,120.34,0,0,1-24.17,12.43,8.69,8.69,0,0,0-2.45,1.34c8.27-1.35,16.62.59,24.85-.94.6-.06,1.37-.67,1.59.5l-9.45,2c6.41,3.71,17.16,5.11,23.87,3.14a71.23,71.23,0,0,0,12.56-4.5c1.79-.92,1.41-1.7.1-2.64s-3.15-1.09-4.75-1.57c-3.27-.12-6.11-2.15-9.49-2.08-1.18,0-2.39.95-3.58.1l-.14.06A2.78,2.78,0,0,1,208,147c2-.6,3.9-2.11,6.07-.51a14.81,14.81,0,0,1,8.13,3.78c2.17,2,4.56,3.49,7.57,3.7.88.06,1.17.44,1.11,1.27s0,1.59-1.07,1.7c-6.5.65-12.15,4-18.25,5.83-3.76,1.16-7.45,2.15-12,.73a10.53,10.53,0,0,0,4.29,3.36c9.11,3.37,12.62,9.33,11.39,18.91a67.21,67.21,0,0,0-.53,6.8c0,1.1-.24,1.37-1.29.95A5.61,5.61,0,0,1,211,191.8c-4.7-5.92-8.9-12.09-10.38-19.71a22.81,22.81,0,0,0-1.31-4.36,9.31,9.31,0,0,0-5.51-5.57c-12.19-4.43-27.66-.36-36,9.52a27.54,27.54,0,0,0-5.71,11.71c-2.82,12.14-2.32,24.09,4.52,34.71,8.4,13,20.84,18.41,36.31,16.53,1.42-.17,2.85-.27,4.27-.47,5.62-.76,10.69.82,15.44,3.65a15.26,15.26,0,0,0,7.43,2.19,13.4,13.4,0,0,1,6.91,2.17c-3-.39-5.9-1.6-9.31-.75,2.84,4,5.5,7.88,9.55,10.5.11.45,0,.71-.51.51a.88.88,0,0,1-.44-.14,3,3,0,0,1-1.67-.78c-4.46-4.57-8.76-9.24-14.81-11.94a22.16,22.16,0,0,0-14.47-1.67c-2.87.65-5.78,1.08-9.25,1.72,3,1.34,5.46,2.62,8.31,3.2,3.7.75,7.38,1.51,10.36,4.21a16.78,16.78,0,0,1,5.83,11.89,7.28,7.28,0,0,1,0,3.62c-1.9.21-1.82-1.35-2-2.46-.74-3.71-2.1-7-5.08-9.57-2.06-1.74-4.48-2.44-7.58-3.09a22,22,0,0,1,2.55,10,2.36,2.36,0,0,1-1.09,1.52,19.68,19.68,0,0,1-4.23,9.8,15.18,15.18,0,0,0-1.38,2.39c-.21.5-.53.93-1.14.73s-.6-.75-.56-1.27a5,5,0,0,1,.6-2.09,5.73,5.73,0,0,0,1-2.17,3.9,3.9,0,0,1,.18-.67,7.72,7.72,0,0,0,.79-2.66,27.66,27.66,0,0,0,.8-6.73,11.24,11.24,0,0,0-6.22-10c-3.33-1.8-7.06-2.21-10.61-3.13a23.43,23.43,0,0,1-9.07-4.1,16.77,16.77,0,0,0-3.11-1.64,34.25,34.25,0,0,1-6.93-5.87,12.75,12.75,0,0,1,1.37,3.44c1,4.28,3.67,7.3,7,9.83,2.88,2.17,5.73,4.39,8.63,6.55a12.34,12.34,0,0,1,2.31,2.83c1,1.76,2.35,3.39,2.51,5.54a8.56,8.56,0,0,0-.24,4.32c0,2.83.11,5.66.16,8.49.08.63.63,1.43-.58,1.61l-.78-2.1c-.49,2.65-3.8,4.45-2.22,7.64.21.55,0,.64-.51.5-1-.21.34-2.34-1.51-1.8a1.52,1.52,0,0,1-.68-1.35c.68-3.2,2-6.22,2.26-9.57.43-5.71-1.74-10-6.37-13.26-.18.19,0,.36.07.51a7,7,0,0,0,.3.7c3.35,7.62,1.8,14.38-3.79,20.27-1.69,1.79-2.43,3.35-.93,5.5.31,1.12,1.13,2,1.38,3.18a2.05,2.05,0,0,1,.05.7c-.15.44-.25.95-.92.72v0c-1.48.07-1.13-1.27-1.55-2a12.66,12.66,0,0,0-2.51-4,5.92,5.92,0,0,1-2.31-2.13c-.84-1.08-.86-2.49-1.47-3.66a14.69,14.69,0,0,0-1.65-3.52c-1.17-2.75-2.41-5.48-3.39-8.31-.35-1.49-1.27-2.78-1.55-4.3.06-2.09-.95-4-.9-6.12.58-2.21,2.36-3.36,4.1-4.54,1-3.57-.41-6.31-2.82-8.86-12.28-13-16.57-29.42-19.76-46.29-.93-4.95-1.6-9.95-2.5-15.63,6.24,7.21,9.73,15.22,13.8,22.91a35.28,35.28,0,0,0-4.87-14.85c-7.62-12.27-17.81-21-32.46-23.61a25.45,25.45,0,0,0-11,.37C93.15,162,91.94,161.73,90.93,162.16Z"/><path class="cls-3" d="M137.64,38Q91.76,39.83,63.58,76.13c-13.23,17.12-18.82,36.56-17.16,58.08a94.75,94.75,0,0,0,1.4,9.76c.26,1.48,0,2.17-1.57,2.33-1.4.14-2.58.58-2.94-1.52a91,91,0,0,1-.83-29C47.25,83.58,64.9,60.25,93.3,45.43c31.87-16.64,64.21-15.81,95.67,1.44,24.16,13.25,39.5,33.78,46,60.63,2.95,12.21,2.7,24.57.52,36.95-.51,2.85-2.08,1.92-3.59,1.79-2.12-.18-1.16-1.71-1-2.68,3-16.22,2.31-32.24-4.13-47.51-13.3-31.52-37.35-49.94-70.71-56.5A93.71,93.71,0,0,0,137.64,38Z"/><path class="cls-46" d="M63.59,245.35l2-3.08c.59-1.33-.37-1.15-1.16-1.27-.63-.1-1.62.56-1.82-.71a22.41,22.41,0,0,0,10.55-3.21c4.58-2.77,9.53-3.14,14.66-2.67,3.7.34,7.41.4,11.12.54,11.75.44,25.53-10.3,28.7-22.23.69-2.61,1.6-5.15,2.42-7.77.91.44.8,1.28,1,1.94,1.38,4.79,2.61,9.62,4.11,14.36,2.07,6.57-.88,11.61-4.68,16.46-.18.75-.31,1.52-.51,2.26,1.53,2.33,2.88,4.71,2.27,7.67.23,2.68-.63,5.17-1.45,7.62-1,3.1-1.74,6.11.08,9.15a1.54,1.54,0,0,1-1.94,1.44c-1.49-.32-1.8.76-2.24,1.8-.85,2-.1,4.2-.72,6.24-.52.91-1.2,1.34-2.21.71a2.43,2.43,0,0,1-.48-.58,13.26,13.26,0,0,0-1.86-3.43c-.52-1.83.25-3.49.79-5.15,1.74-5.46,2.44-11.1,3.37-17.36-4,2.84-8.6,3.93-10.6,8.42-.68,1.07-.38,2.28-.55,3.43a1.18,1.18,0,0,1-.85,1.12.67.67,0,0,1-.76-.5c-.17-.43-.55-.87-.15-1.38-.46.33.14,1.17-.87,1.38a8.71,8.71,0,0,1-.12-4.67c-.39-1.91-1.19-.45-1.56-.1-3.42,3.23-5.12,7.13-4.44,11.9.12.83.33,1.64.49,2.45.4,1.55,1.69,2.8,1.55,4.53l0,0c.33.33.79.58.68,1.16-.15.35-.33.64-.78.41-1.52-1.37-1.25.27-1.56.93a1.82,1.82,0,0,1-.91,1.12l0,0c-.84,0-.89-.41-.5-1,.92-2.86.89-3.12-.9-7.18l-2.67,4.63c-.5.09-.81,0-.57-.61a3.75,3.75,0,0,1,1-2.46c1.22-1.72.92-3.64.72-5.54l-.16-1c-.19-1.26-.51-2.49-.71-3.74-.13-1.87.94-3.36,1.53-5a12.44,12.44,0,0,1,3.88-4.49c2.61-2.71,6-4.37,9.22-6.08a15.14,15.14,0,0,0,8.6-12.85,36.68,36.68,0,0,1-18.47,10.55,11.59,11.59,0,0,0-2.54.46,49.85,49.85,0,0,0-6.8,1.74c-5.5,1.95-8.14,5.61-8.36,11.5a37.62,37.62,0,0,0,.28,4.5,4.66,4.66,0,0,0,.77,3.22,2.61,2.61,0,0,1,.18.78,5.75,5.75,0,0,1,0,.83c-.19.69-.35,1.42-1.36,1.17-2.38-1.8-1.77-4.84-2.92-7.15a13.36,13.36,0,0,1-.46-1.56c-.08-4.36-.11-8.72,2.81-12.53-6.43.38-11.61,4.86-13.52,11.5-.76,1.23.73,2.94-.83,4-1-9.54,3.56-16.15,12.91-18.48a67.18,67.18,0,0,0,10.27-3.82c-12.13-4.07-23.2-3.15-32.4,6.66C63.26,246.36,63.19,246,63.59,245.35Z"/><path class="cls-47" d="M139.85,125.21h-8.6c-4.17,0-7.35-2.43-7.31-6.54s-2-6.82-4.8-9.48C107.8,98.4,105.79,83.75,113.75,71.1,121.41,59,137,53.85,150.86,59c15.49,5.7,23.73,20.88,19.72,36.36A28.56,28.56,0,0,1,162,109.06c-1.11,1-2.18,2.12-3.31,3.14a7,7,0,0,0-2.31,5.38c-.1,5.13-2.53,7.46-7.67,7.52-3,0-5.91,0-8.86,0Z"/><path class="cls-48" d="M187.23,164.05a22.37,22.37,0,0,0-1.76,4.67c-.48,2.35-.3,4.12,1.9,5.85,3.93,3.1,3.88,9.79.11,14.41-3.08,3.76-7.5,5.41-12.49,7.59,1.77-4.07,1.33-7.7,1.45-11.29a12.12,12.12,0,0,1,3.66-8.36c.51-.51,1.26-.86,1.34-1.9-2.66.18-4.1,2.09-5.78,3.67-.86.81-1.61,2.72-2.81,2s-.31-2.5.13-3.76c1.33-3.81,3.79-5.44,8.23-5.06,1.73.14,2.14-.34,2.32-1.92C183.84,167,184.73,165.72,187.23,164.05Z"/><path class="cls-3" d="M100.66,165.17c1.77,1.85,2.34,4.28,2.91,6.63.33,1.38.87,1.64,2.17,1.66a6.82,6.82,0,0,1,6.86,6.11c.07.71.39,1.66-.38,2.08s-1.19-.49-1.66-.88c-1.68-1.39-3.11-3.08-5.16-4-.11.18-.27.38-.24.41,3.35,3.55,3.85,7.9,3.56,12.49a19.32,19.32,0,0,0,1,7.49c-4-1.94-7.71-3.39-10.55-6.44-4.27-4.59-4-13.74,1.66-16.87a1.88,1.88,0,0,0,.94-2.1,13.6,13.6,0,0,0-1.68-5.52C99.73,165.6,99.73,165.13,100.66,165.17Z"/><path class="cls-49" d="M163.85,281.83c-.29-.52-.55-1.05-.87-1.54-1-1.52-1-2.61.56-4,6.27-5.75,9.25-13,3.06-23.93,4.45,1.1,8.86,6.37,9.4,11.24a24.2,24.2,0,0,1-2.4,13.26c-.62,2.54-2,4.86-1.89,7.59,0,.38-.28.56-.65.59a6.69,6.69,0,0,1-.16-4.8c-3.2,1.24-4.18,3.4-2.93,6.14a6.73,6.73,0,0,1,.89,4.33c-2.18-1.3-2.61-3.66-3.47-5.76l0-.05c-.77-1.73.34-3,1.07-4.38,1-1.85,2.66-3.21,3.71-5a61.69,61.69,0,0,0-4.36,5.82C165.37,282.08,164.91,283.07,163.85,281.83Z"/><path class="cls-9" d="M101.35,128.67c-.84,2.81-.32,5.06-.54,7.43.12-1.37-1.2-1.24-1.58-1.77a7.78,7.78,0,0,1-1.41-6,10.53,10.53,0,0,1,6.38-8.19c2.3-1,4.73-1.76,7-2.77,1.25-.55,1.28.1,1.27,1,0,4.14-.18,8.26-2,12.11a7.55,7.55,0,0,1-1.66,2.49c-2.8,2.63-5.76,1.92-6.87-1.7C101.81,130.62,101.68,130,101.35,128.67Z"/><path class="cls-50" d="M211.61,128.16c-.61-5.23,1.32-8,7.57-9.88,2.72-.83,5.55-1.26,8-3.73,0,4.68-.13,8.88-1.49,12.87-1.72,5.06-6.51,6.85-11.17,4.41-1.3-1.18-.76-1.91.64-2.21a33.23,33.23,0,0,0,4.92-1.35,28.26,28.26,0,0,1-5,1.34c-.51.08-1,.18-1.4-.25-.52-.59-.1-1.12.18-1.61a12.22,12.22,0,0,1,2.54-2.76,16.89,16.89,0,0,0-2.73,3C213.14,128.7,212.44,129.62,211.61,128.16Z"/><path class="cls-51" d="M83.33,108.46c-3.53-1.75-4.72-5.07-5.5-8.53C76.63,94.6,77.7,90.1,81,85.08c8.52,6.16,9.84,16.9,2.8,22.9-.68-.68-.45-1.56-.5-2.38-.15-2.84.69-5.66.12-7.86C84,100.89,83.08,104.67,83.33,108.46Z"/><path class="cls-52" d="M181.73,132.21c-.14-.3-.19-.7-.42-.87-.48-.36-.44.08-.48.4-.35,2.77-2.28,2.54-4.17,2.08-2.84-.69-4.24-2.95-5.21-5.43-1.43-3.64-1.51-7.49-1.62-11.73,2.31,1.71,4.72,2.16,7,2.93a11.66,11.66,0,0,1,6.58,17.07c-.71,1.27-.7.26-.86-.26-.44-1.14-.1-2.32-.11-3.47,0-2.85-1.15-4.79-3.86-5.75a1.88,1.88,0,0,1-.63-.37c1.38.64,3.25,1.42,4.06,3.48C182.37,131.18,182.41,131.17,181.73,132.21Z"/><path class="cls-47" d="M196.64,97.91c-.79,3.15-.47,6.39-.22,9.89-6.74-6.31-6.32-17,3.27-22.63,4.27,10.5,3.51,18.36-2.37,22.79C196.56,104.59,196.9,101.26,196.64,97.91Z"/><path class="cls-53" d="M152.76,262.05a51.55,51.55,0,0,1,3.47,8.26c.81,2.3.36,4.57-.11,6.85-.42,2-1.3,4,.21,6.17a5.13,5.13,0,0,1,.49,4.07c-2.1-2.25-3.2.4-4.72,1a1,1,0,0,1-.28-.92c1.49-4.57-1.61-7.62-3.63-11a6.91,6.91,0,0,1-2-3.11,6,6,0,0,1,1.13-4.75,60.43,60.43,0,0,0,3.2-6.26C151,261.33,151.76,259.91,152.76,262.05Z"/><path class="cls-54" d="M93.06,114.79l-1.28,2.72c-3.31-3.64-.33-11.59,5.85-16,3.48,9.5.83,16.23-4.62,16.54C92.67,117,93.24,115.94,93.06,114.79Z"/><path class="cls-55" d="M184.66,118.15c-3.73-1.65-5.43-4.72-5.52-8.6a83.16,83.16,0,0,1,.6-8.41c5.12,3.27,8.37,7.35,7.94,13.58-.11,1.61-.22,1.78-1.55,2.42-1.77-1.78-1.84-4.35-2.89-6.13.53,1.5,1.42,3.2,1.89,5C185.3,116.7,186.17,117.76,184.66,118.15Z"/><path class="cls-54" d="M140,127.33h9.88c1,0,2.22-.17,2.24,1.32a2,2,0,0,1-2.25,2.18c-1.77,0-3.55,0-5.32,0-4.89,0-9.79,0-14.68,0-1.48,0-2.46-.3-2.44-2.05s1.25-1.58,2.45-1.56c3.38,0,6.75,0,10.12,0Z"/><path class="cls-56" d="M146.84,273.22l1.84,2.58c.39.84,1.94,1.95-.5,2.13-1.24-.08-1.49-2-3-1.6a7.45,7.45,0,0,1-1.6,1.42c-1.64,2.46-2.63,5.31-4.51,7.64-.76.15-.89-.39-1-.92a23.14,23.14,0,0,1,2.56-6.76,10.18,10.18,0,0,0-.07-10.08c-1.61-3.21-3.43-6.36-4.15-9.95,0-2.22,1.51-2.44,3.2-2.43,1.18.51,1.52,1.71,2.21,2.62a51.78,51.78,0,0,1,2.61,8.32,11.2,11.2,0,0,0,1.34,2.68C146.5,270.22,146.25,271.83,146.84,273.22Z"/><path class="cls-57" d="M128.84,239.7l1.63-2c.83,1,1.33,0,1.86-.36a19,19,0,0,0,7.3-10.57l4.05,7.39a3.42,3.42,0,0,1-1.42,2.34c-1.82,1.05-3.09,2.72-4.6,4.11-.9.84-1.75,1.79-3.16,1.7A23.11,23.11,0,0,0,128.84,239.7Z"/><path class="cls-58" d="M139.55,136.58c-3.11,0-6.22,0-9.33,0-1.15,0-2-.17-2.06-1.55s.75-1.86,2-1.87c6.39-.05,12.78-.13,19.17-.2,1.06,0,2.21,0,2.15,1.43a1.94,1.94,0,0,1-2.13,2c-3.28,0-6.56,0-9.84,0Z"/><path class="cls-59" d="M111.67,255.88V260c.92-.54.24-1.3.88-1.8.4.67,0,1.74.87,2.27.84-1.42-.67-3.22.81-4.47,1.15.83,1,2.09.94,3.22,0,5,2.1,9.21,4.39,13.45,1.15-.38,1.09-1.89,2.27-2,1.83.35,1.75,1.86,2,3.19-.75,1.7-.68,3.59-1.24,5.34a1,1,0,0,1-1.35.22c-.86-1.09-1.42-.58-1.88.37-1.26-.17-.64-1-.61-1.65.15-1.7-1-2.76-1.87-4-3.16-4.74-5.79-9.67-5.62-15.6C111.25,257.65,111.05,256.69,111.67,255.88Z"/><path class="cls-60" d="M122.41,278.74c-.76-1.76,0-4.47,1.38-4.88a.28.28,0,0,0,.1.36c2,3,3.8,6.07,5.93,9,.57.76,1.31,1.62.57,2.72L129,293c-.1.5-.22,1.12-.78,1.17-.89.07-.65-.76-.79-1.28-.3-1.21-.61-2.42-.91-3.64-.16-2.34-1.63-4.13-2.57-6.13C123.24,281.7,122.28,280.41,122.41,278.74Z"/><path class="cls-61" d="M140.16,142.31h-6.82c-1.48,0-2.46-.54-2.46-2.18,0-1.81,1.4-1.37,2.39-1.38,4.71-.06,9.43-.05,14.15-.07,1.13,0,2.27-.07,2.19,1.63-.07,1.4-.82,1.9-2.12,1.89-2.45,0-4.89,0-7.33,0Z"/><path class="cls-62" d="M179,264.11c-.78-1.43-.52-3-.46-4.47,1-1.05,1.65-.3,2.46.4a84.68,84.68,0,0,1,9.63,10.5c0,.3-.12.75,0,.88.38.35.69-.14,1-.27,1.16,5,2.18,10.16,7.41,12.91-5.77-1.61-6.74-6.81-8.49-11.5-2.19,1.71-2.61,4.43-4.43,6.53-.08-2.14,1.12-3.53,1.9-5a2.9,2.9,0,0,0-.48-3.84c-2.79-2.9-5.49-5.89-8.29-8.91C178.69,262.32,179.36,263.26,179,264.11Z"/><path class="cls-63" d="M153.71,247.22c-.32,2.18-2.68,2.61-3.65,4.23-2.69-.83-2.91-3.51-4.13-5.45a6.24,6.24,0,0,1-.81-3.35c.32-.82.51-1.7.86-2.5s.82-1.59,1.68-.38C150,242,151.68,244.75,153.71,247.22Z"/><path class="cls-64" d="M197.32,259l.52-1.45c1.1-.51,1.68.39,2.39.91,1.12.84,2,2.05,3.46,2.4a7.1,7.1,0,0,1,1,.15,51.09,51.09,0,0,1,5.29,1.59c.94-1.09.15-2.46.58-3.64.93,1.25-.43,3.36,1,4.05,1.23.6,3,.1,4.48.19a6.25,6.25,0,0,1,5,2.6c-2.83-1.82-5.95-1.46-9.05-1.4-1.57,0-1.27.75-.9,1.67.17.56-.1.68-.59.59-.93-1.65-4.49-3.62-6.15-3.49-1,.08-.77.72-.74,1.27a23.32,23.32,0,0,0,.91,6.21c.13.53-.1.67-.59.55a7,7,0,0,1-1.19-4.72c.19-2.29-.39-4.26-2.58-5.41C199.12,260.48,198.82,258.89,197.32,259Z"/><path class="cls-65" d="M102,261l0,4.14-.75-1.92A35.5,35.5,0,0,1,92.58,272c-.93.69-.78,1.62-.65,2.53.37,2.46-.31,4.65-1.83,7.1.28-2,1.5-3.56.56-5.83-1.87,5.18-6.79,6.8-10.4,10.39a6.41,6.41,0,0,1,3.18-3.73,18.43,18.43,0,0,0,4.88-4.35A8.18,8.18,0,0,0,90,271.66a.48.48,0,0,1,.44,0c.22.13.27.37.36.58.07-.2-.08-.38,0-.59.27-1.18,1.24-1.76,2.06-2.48a91.86,91.86,0,0,0,6.78-6.75C100.22,261.71,100.76,260.73,102,261Z"/><path class="cls-66" d="M138.59,284.41l.51,1c-.83,2.1-1.64,4.21-2.5,6.3a5,5,0,0,0,.76,5.21c1.26,1.69,2.56,3.35,3.91,5a5.15,5.15,0,0,1,1.15,5c-.53-5.59-6.13-7.53-7.69-12.85l-3,5.4c.9-3.46,3.44-6.74.59-10.38.09-.6-.06-1.26.5-1.71,1.75-.2,1.67,1.56,2.62,2.52a18.14,18.14,0,0,1,1.3-3.85C137.17,285.3,137.27,284.12,138.59,284.41Z"/><path class="cls-67" d="M206.06,150.5c4.77-2.06,9-.71,13.07,2-3.82,1.77-7.57,2.93-10.71-1.26C207.85,150.46,206.56,151.71,206.06,150.5Z"/><path class="cls-68" d="M148,277.37c1.94.18.39-1.07.65-1.57,2.42,2.48,3.48,5.72,4.58,8.84.35,1-.73,2.47-1.16,3.73-2,2.73-2.16,5.66-1.16,8.83-.25-.52-.5-1-.74-1.56s-.52-1.22-.87-2c-1.83,1.46-2.76,3.52-4.13,5.21a.52.52,0,0,1,0-.78l3-5.07c.54-.56.13-1.41.61-2,2.09-3.55,2.45-7.06-.09-10.6C148.07,279.54,147.39,278.56,148,277.37Z"/><path class="cls-69" d="M132.94,287.53c0,.57,0,1.18-.58,1.52-1-.85-1.24-2.15-2-3.15-.78-2.17-2.4-3.78-3.69-5.61s-2.6-3.71-2.81-6.07c.8.47,1.25,0,1.59-.64,1.23.06,1.56,1.09,2,1.92,1.15,2,2.33,4,3.48,6,.46.71.69,1.53,1.08,2.28C132.26,285.05,133.44,286.1,132.94,287.53Z"/><path class="cls-70" d="M63.63,152.17c3.7-1.12,7.08-3.56,11.26-2.76.5.1.71-.32.83-.75a1.61,1.61,0,0,1,1.07,1.89,2.38,2.38,0,0,0-3,1.08c-1.64,2.24-6.21,2.56-8.85,1A9.92,9.92,0,0,0,63.63,152.17Z"/><path class="cls-71" d="M74.56,231.41c-1.29-5.35-6.89-4-10.31-6.6,5.69,1.1,11.31,1.7,12.41,9-4.55-3.05-8.4-.2-12.5,1.27a9.61,9.61,0,0,1-6.23.13C64,236.13,68.41,230.19,74.56,231.41Z"/><path class="cls-72" d="M156.82,287.4c-.7-1.7-.47-3.78-2.24-5.08-.5-.36-.08-1.26,0-1.91a58.21,58.21,0,0,0,1.6-10.1,6.78,6.78,0,0,1,1.63,3.37c-.44,1.77-.31,3.63-1,5.79,1.12-.82,1.52-1.84,2.48-2.16l1.56,2.49c-3.19,1.31-3.89,2.79-3.31,7C157.7,287.72,157.7,287.72,156.82,287.4Z"/><path class="cls-73" d="M84.86,259a1.37,1.37,0,0,1,.46,1.56c-.44-.73-.7-.61-1.45-.11a30.87,30.87,0,0,0-11,12.22,3.33,3.33,0,0,1-2.06,2c2-3.43,3.5-6.44,5.34-9.25a7.73,7.73,0,0,0,1.51-4.66c-.09-3.23,1.46-5.88,3.19-8.45-.91,3.45-3.28,6.58-2.07,10.64Z"/><path class="cls-74" d="M215,226.49c-3.19.78-6.11,1.92-7.47,5.91,6.59-2.66,11.57,2.43,17.92,2.87a11.45,11.45,0,0,1-7.72-1.2,11.57,11.57,0,0,0-10-.39c-.5.22-1.17.6-1.63,0s.12-1.13.34-1.62c1.6-3.43,3.73-6.22,8-6.14C215,225.8,215.13,226,215,226.49Z"/><path class="cls-75" d="M76.93,147.83c-4-2.28-7.73-2.14-11.5-1.89-.69,0-1.67.52-1.91-.54s.83-1.12,1.49-1.35C69.69,142.49,74.65,143.89,76.93,147.83Z"/><path class="cls-76" d="M147.66,239.77c-.8-.31-1,.09-1,.8a2.79,2.79,0,0,1-1.08,2.32,7.09,7.09,0,0,1-3.53-6.63,2.5,2.5,0,0,1,1.6-2.09C144.81,236.17,146.77,237.59,147.66,239.77Z"/><path class="cls-77" d="M211.61,128.16c.74.87,1,.18,1.44-.36a19.12,19.12,0,0,1,5.74-5.07c-1.47,2.19-3.76,3.75-5,6.5,3.44-.12,6.28-1.42,9.23-2.37-1.8,2-4.36,2.27-6.74,3-.85.26-2.83-.1-1.72,2l-1.46.46c-.62-1.31-1.74-.09-2.54-.51.38-.17.74-.35,1.12-.5.59-.23,1.5,0,1.67-.85.23-1.2-.91-.59-1.35-.91A1.14,1.14,0,0,1,211.61,128.16Z"/><path class="cls-78" d="M149.22,291.44c-.36.51-.71,1-1.06,1.54.29-1.69-.66-3.07-1.13-4.57-1.11-3.57-2.28-7.11-3.42-10.67a2.63,2.63,0,0,1,.95-2.05c.23.09.52.17.62.4C147.25,281,149.42,285.91,149.22,291.44Z"/><path class="cls-79" d="M205.57,148.48c.53-2.82,2.69-3.9,5.09-4.54a11.57,11.57,0,0,1,6,.22c.69.18,1.68.57,1.38,1.48s-1.2.15-1.82.25C212.33,145.41,208.89,146.69,205.57,148.48Z"/><path class="cls-80" d="M107.71,274.66c-.57-1.49-1.77-2.77-1.55-4.53l.82,1.1c.76-1.93,1.28-3.85,2.57-5.4.3-.36.44-1.06,1.07-.78s.12.83.16,1.26C111.09,269.61,108.23,271.7,107.71,274.66Z"/><path class="cls-81" d="M118.71,278.14c.2.55,0,1.24.61,1.65-.52,2.26-2.23,3.88-3.2,5.9-.78,1.66-1.89,3.21-.65,5.36-1-.48-.64-1.71-1.71-1.57-.82,0-.91-.42-.53-1.05Z"/><path class="cls-82" d="M178.6,274.21c.66-.37.31-1.11.58-1.61,2,5.28,5.39,9.88,7.27,15.23-2.31-3.68-4.63-7.36-6.91-11.06A4.21,4.21,0,0,1,178.6,274.21Z"/><path class="cls-83" d="M122.41,278.74c1.84,3.31,3.93,6.53,4.06,10.5l-5.27-9.82Z"/><path class="cls-84" d="M73.32,262c.7-1.25-.25-2.84.83-4,.32,1.6-.79,3.34.89,4.91.66.62-.86.86-1.49.9-3.17.2-6.39.18-9.19,2.11a8.81,8.81,0,0,1,6.83-3C71.94,262.83,73.16,263.59,73.32,262Z"/><path class="cls-85" d="M181.73,132.21a3.25,3.25,0,0,0-2-4c-1.86-.76-2.91-2.12-4.24-3.72,7,3.68,7.94,5.28,7.11,11.89A9.58,9.58,0,0,1,181.73,132.21Z"/><path class="cls-86" d="M205.57,148.48c3-2.94,6.68-3.38,10.63-2.59l-2.1.55a15.58,15.58,0,0,0-5.8,1.27c-1.16.61-2.48,1.17-2.38,2.85A1.43,1.43,0,0,1,205.57,148.48Z"/><path class="cls-87" d="M196.8,156l-1.59-.5c3.51-.92,6.87-2.32,10.34-3.4A18.2,18.2,0,0,1,196.8,156Z"/><path class="cls-88" d="M104.63,277.26c.14.35,0,.83.5,1a37.36,37.36,0,0,1-5.91,9Z"/><path class="cls-89" d="M89.56,156l-1.13.55a22.91,22.91,0,0,1-10.14-4.25C81.84,154.2,85.82,154.76,89.56,156Z"/><path class="cls-90" d="M67.66,129.71a32.62,32.62,0,0,1-6.76-.58,6.05,6.05,0,0,1-4.5-3.32c3.52,1.74,6.48,4.05,10.22,2.43Z"/><path class="cls-91" d="M171.06,285c.65-2.79.53-5.81,2.54-8.18,0,.55,0,1.09,0,1.63a27.06,27.06,0,0,0-1.8,9.94C170.75,287.4,171.29,286.12,171.06,285Z"/><path class="cls-92" d="M62.6,240.29c.74.72,1.68.32,2.53.48,1.07.2,1.48.64.45,1.5.13-1-.57-1-1.27-1a14.57,14.57,0,0,0-7.78,1.52,8.76,8.76,0,0,1-2.51.85C56.58,241.73,59.21,240,62.6,240.29Z"/><path class="cls-93" d="M224.62,251.51a1.55,1.55,0,0,1,1.67.78c-.13,2.83,1.39,5.06,2.73,7.33a20,20,0,0,1,1.48,2.26C227,259.3,225.79,255.43,224.62,251.51Z"/><path class="cls-94" d="M83.33,108.46c-.86-1.21-.57-2.59-.47-3.89a36.45,36.45,0,0,0,.18-8c1.58,3.72.51,7.63.8,11.43Z"/><path class="cls-95" d="M63.59,245.35l.51,1a38.2,38.2,0,0,1-4.61,6.05.88.88,0,0,1-1.1.12,3.16,3.16,0,0,0-.32,0c-.55.19-.64-.06-.54-.53C60.6,250.72,61.51,247.5,63.59,245.35Z"/><path class="cls-96" d="M100.66,165.17c-.51.19-.52.65-.59,1.08-2.41-2.78-5.36-4.37-9.14-4.09a4.67,4.67,0,0,1,3.15-.9c1.22,1.22,3.1,1,4.43,2C99.3,163.79,100.28,164.15,100.66,165.17Z"/><path class="cls-97" d="M165.39,284.91l3.47,5.76,1.59,3a21.7,21.7,0,0,1-5.5-7.8C165.1,285.54,165.25,285.22,165.39,284.91Z"/><path class="cls-98" d="M163.39,283.82l1.55,2c-2.3,2.87-2.66,6.19-2.33,9.68-1.14-1.06-1.06-1.05-1-2.82C161.78,289.64,163.65,286.94,163.39,283.82Z"/><path class="cls-99" d="M105.16,278.31c.31-.37.61-.75.91-1.12,1,3.68.5,7.43.6,11.17C105.78,285.06,106.37,281.55,105.16,278.31Z"/><path class="cls-100" d="M184.66,118.15c.84-1.2-.19-2.16-.47-3.18-.56-2-1.31-3.93-1.82-6a34.21,34.21,0,0,1,3.76,8.12C185.6,117.41,186.06,119.14,184.66,118.15Z"/><path class="cls-101" d="M91,271.59a6.8,6.8,0,0,1,.23,3.4c-1.26-.94-.29-2.54-1.29-3.33-.58-1.32-1.15-2.63-1.73-3.94.6-.36.61-1,.65-1.55,1.38-.26,1.16,1.13,1.76,1.69C91.09,269.07,91.73,270.26,91,271.59Z"/><path class="cls-102" d="M58.39,252.52l1.1-.12c-.82,2.36-1.58,4.74-2.5,7.06a4.22,4.22,0,0,1-1.88,2.27c-.37.13-.47,0-.31-.34C56.93,258.81,57.4,255.56,58.39,252.52Z"/><path class="cls-103" d="M100.49,274.1l.57.61c-1,2.48-2.82,4.44-4.36,6.58A28.11,28.11,0,0,1,100.49,274.1Z"/><path class="cls-104" d="M107.63,276.26l.63-.57c.59-.11.74.26.79.73,1,2.13,2.57,4,2.83,6.56Q109.77,279.62,107.63,276.26Z"/><path class="cls-105" d="M113.23,288.43c0,.41.07.84.53,1.05a15.91,15.91,0,0,1-5.15,5.64Z"/><path class="cls-106" d="M175.09,280.25l.51-.5,3.6,7.6C177.44,285.18,175.59,283.07,175.09,280.25Z"/><path class="cls-107" d="M210.52,266.62l.59-.59c1.33,2.44,2.66,4.89,4,7.33C212.82,271.59,211.74,269.06,210.52,266.62Z"/><path class="cls-80" d="M109.05,276.42l-.79-.73-.53-1c1.53.12,1.32-1.08,1.58-2,.17-.63.62-1.41,1.34-1.17.95.31.21,1.09.13,1.67C110.62,274.5,109.17,275.11,109.05,276.42Z"/><path class="cls-108" d="M85.49,267.49c-1.37,2.25-3.26,4.11-4.45,7A9.35,9.35,0,0,1,85.49,267.49Z"/><path class="cls-109" d="M226.73,252.43l.51-.51c2.52.6,4.69,2,7,3l-.24.57Z"/><path class="cls-102" d="M57.53,252l.54.53-7.57,3.65C52.52,254.1,55.05,253.09,57.53,252Z"/><path class="cls-110" d="M66,127.34l-4.16-3.82a6.63,6.63,0,0,1,4.86,3.11Z"/><path class="cls-89" d="M101.59,156.18a23.64,23.64,0,0,1-10.15,0Z"/><path class="cls-111" d="M145.15,298.05l0,.78a7.86,7.86,0,0,1-1.9,3.79A5.86,5.86,0,0,1,145.15,298.05Z"/><path class="cls-112" d="M204,271.16l.59-.55c.62,1.32,1.23,2.65,1.85,4A6.21,6.21,0,0,1,204,271.16Z"/><path class="cls-113" d="M215,226.49l-.51-.53,4-1.56A5.69,5.69,0,0,1,215,226.49Z"/><path class="cls-75" d="M71.79,146.94,65.1,147A10.7,10.7,0,0,1,71.79,146.94Z"/><path class="cls-103" d="M102.2,266.1c.72,2,.87,3.87-.72,5.54A16.76,16.76,0,0,0,102.2,266.1Z"/><path class="cls-114" d="M55.11,261.73l-2.37,3.17-.79-.77a6.79,6.79,0,0,1,2.85-2.74A3.28,3.28,0,0,1,55.11,261.73Z"/><path class="cls-115" d="M164.44,236.63c5.95,4.06,12.71,5.83,19.61,7.56,8.92,2.23,12.41,9.67,9.33,18.38a3.69,3.69,0,0,0-.09,1c-1.15.87-1.69-.19-2.28-.79a22.28,22.28,0,0,1-4-5.78c-2.46-4.9-5.72-9.1-8.77-11,3.09,2,6.35,6.23,8.84,11.19a21.35,21.35,0,0,0,4.6,6.28,2.22,2.22,0,0,1,.68,2.71l0,0c-.88,1.27-1.71.79-2.74.08a36.11,36.11,0,0,1-7.79-7.82c-4.42-5.73-9.49-10.91-13.93-16.61-.9-1.8-3.21-2.45-3.75-4.54A1,1,0,0,1,164.44,236.63Z"/><path class="cls-116" d="M161.27,276.36c-1.82-4.89-3.66-9.48-5.22-14.17-1.17-3.54,0-7,1-10.41.38-1.29.84-2.55,1.41-4.29,4,4.46,7.27,8.9,8.45,14.55S165,272.06,161.27,276.36Z"/><path class="cls-117" d="M203.41,261.56c-2.4-.6-3.76-2.64-5.57-4.05-.7-3.79-1.1-7.67-3.77-10.88,6.46-1,13.38,4.31,14.9,11.09.36,1.61.26,3.33,1,4.84-2,.77-3.74-.45-5.55-1-.93-1.5-.69-3.25-1-4.87a10,10,0,0,0-1.36-4.06C203.33,255,204.47,258.09,203.41,261.56Z"/><path class="cls-118" d="M164.44,236.63l0,.6a2.22,2.22,0,0,0-.33.35c2.07,2.53,3.42,5.61,6.06,7.69a53.62,53.62,0,0,1,4,4.36c1,1.16.86,1.42-.22,2.36-3.44-2.58-6.86-5.17-10.31-7.72a13.93,13.93,0,0,1-5.21-7.56,72.64,72.64,0,0,0-2.93-7.65C158.32,231.87,161.47,234.14,164.44,236.63Z"/><path class="cls-119" d="M146.84,273.22l-1.8-4c-1.37-5.93,1.18-11.27,2.49-16.81,1.5-.76,2,.33,2.34,1.4a8.93,8.93,0,0,1,.61,3.21c0,.55,0,1.05.81.87,0,1.56,1.44,2.59,1.47,4.13-.57-.61-1-.7-1.36.23a33.09,33.09,0,0,1-4.39,8.34C146.32,271.51,147.41,272.4,146.84,273.22Z"/><path class="cls-120" d="M174,252c1-.88-.07-1.31-.45-1.76-1.28-1.51-2.65-3-4-4.43-.79-.88-1.36-1.92-2.06-2.87s-.54-1.38,1-1.61c5.34,6.15,10.84,12.16,15.73,18.69a38.34,38.34,0,0,0,6.16,5.92,1.44,1.44,0,0,0,2,.21,4.93,4.93,0,0,1-1,2.61c-2.58-1-4.33-3.15-6.34-4.9a61.33,61.33,0,0,1-8.94-9.42Z"/><path class="cls-121" d="M192.34,266.16a4.2,4.2,0,0,0-1.7-3,23.62,23.62,0,0,1-5.13-7.12c-2.25-4.58-5.81-8-9.71-11.12a3.23,3.23,0,0,1-1.62-2,26.41,26.41,0,0,1,11.9,10.71c1.55,2.69,3.11,5.39,4.77,8,.55.87,1.07,2,2.44,1.89A5.23,5.23,0,0,1,192.34,266.16Z"/><path class="cls-122" d="M176.07,254.43c.15-.22.26-.9.56-.47,3.89,5.66,9.62,9.41,14.44,14.1a2,2,0,0,1,.28.69l-.7,1.79c-1.27.69-1.57-.56-2.12-1.15-2.72-3-5.39-6-8.08-9-.5-.56-1-1.22-1.89-.77A23.09,23.09,0,0,0,176.07,254.43Z"/><path class="cls-123" d="M163.85,281.83c.31.09.77.31.88-.06.82-2.74,3.34-4.36,4.5-6.89.34-.74,1.13-2.13,2.24-1.17.85.74.15,1.88-.57,2.64a36.07,36.07,0,0,0-4.84,6.41,4.63,4.63,0,0,0-.64,2.1A9.22,9.22,0,0,1,163.85,281.83Z"/><path class="cls-124" d="M151.29,257.92c-.29.73,0,1.71-1.08,2.26-1.29-2.46.7-6-2.54-7.77l-.26-.22a20.31,20.31,0,0,0-1.58-4.51,1.79,1.79,0,0,1,.88-1.93,31.67,31.67,0,0,0,3.35,5.7C150.56,253.59,151.33,255.67,151.29,257.92Z"/><path class="cls-125" d="M159.32,277.31c-.1,1.48-1.13,2.42-2,3.42-.54.62-1.49.76-1.36-.26.3-2.33.17-4.85,1.91-6.79Z"/><path class="cls-126" d="M204.53,171a34.18,34.18,0,0,1,5.27,10.43C207.28,178.29,205.93,174.6,204.53,171Z"/><path class="cls-127" d="M80.6,172.12a25.55,25.55,0,0,1-4.69,8.61C77.09,177.66,78.18,174.55,80.6,172.12Z"/><path class="cls-128" d="M130.33,281.93l-4.85-8.35a12.66,12.66,0,0,1,1-8c.74-1.67,1.33-1.49,2.31-.39,3.81,2.31,5.88,5.93,7.48,9.91.17,1.59,1,3,1.07,4.48.15-.87-.67-1.73-.53-2.76-.29-2.23-1.46-4.08-2.56-6-.71-1.22-1.64-2.35-1.72-3.86.72-2.58,1.38-5.17,2.06-7.76.26-1,.52-2,1.61-2.39.52,0,.66.35.85.69,1.56,3.54,3,7.12,4.72,10.59a9.8,9.8,0,0,1,0,9.41c-1.16,2.24-2.11,4.58-3.16,6.88-1.69,2.26-1.94,5.09-2.9,8-1.37-1.57-1.35-3.64-2.75-4.85a7.68,7.68,0,0,1-1.51-3.61c.46-2.8,1.95-5.51.62-9.08-.21,2.07,0,3.55-.22,5C131.71,280.75,131.86,282,130.33,281.93Z"/><path class="cls-129" d="M106.15,242.81c7.52-2.49,14.54-5.76,19.38-12.57,1,5.46-2.49,12.42-7.72,15.49-3.62,2.13-7.4,4-10.69,6.68-1.36.59-1.22-.31-1-1.07a9.29,9.29,0,0,1,2.16-3.08c1.72-1.93,3.77-3.51,5.59-5.33a31,31,0,0,0-7.82,7.38c-2.78,3.5-5.69,6.89-8.19,10.61a13.89,13.89,0,0,1-5.41,4.45c-1.08.55-2.27,1.26-3.5.2a1.57,1.57,0,0,1-.09-.43c-.62-.93-.57-2,.38-2.42,2.33-1.05,3.55-3.63,6.09-4.33.11,0,.34.12.31,0-.63-3.92,1.76-6.52,4-9.13C101.72,247,104.19,245.14,106.15,242.81Z"/><path class="cls-130" d="M121.83,270.67c-.87,1.37-.61,3.14-1.83,4.77-3.46-6.18-6.76-12.16-5.77-19.47a7.28,7.28,0,0,1,3.47-4.17c2.89-1.82,5.82-3.56,9.07-5.54a141.12,141.12,0,0,1-3.1,17.61C123.06,266.14,122.08,268.3,121.83,270.67Z"/><path class="cls-131" d="M88,262.05a16.06,16.06,0,0,1-.08-8.23c1.39-5.95,5.59-8.69,11.18-9.84,1.48-.31,3-.5,4.47-.75,1.92-.31,1.32.81.71,1.49-1.07,1.18-2.23,2.29-3.41,3.37a18.84,18.84,0,0,0-5.09,7.7c-1,2.93-3.23,4.82-5.71,6.44C89.34,262.68,88.53,263.27,88,262.05Z"/><path class="cls-132" d="M89,265.57c4.34-.49,7-3.37,9.33-6.65a111,111,0,0,1,12.77-15.28,6.69,6.69,0,0,1,5.14-2.06,10.28,10.28,0,0,1-3.3,3.57,51.81,51.81,0,0,0-6.14,6.34c-.45.55-.44.86.34.92l-3.47,4.11c-1.76,1.11-2.31,3.16-3.57,4.68a24.23,24.23,0,0,1-10.19,7l-1-2Z"/><path class="cls-133" d="M137,257.53l-.49-.53c-1.68-.91-1.52-2.95-2.6-4.23-.8-1.78-1.45-3.63-2.39-5.35,0-2.78-.22-5.46-3.12-7-.22-.11.09-.59.41-.76a.59.59,0,0,0,.88.08c1.46-1.33,2.46-.76,3.35.72a2.59,2.59,0,0,0,1.47,1.3,33.67,33.67,0,0,1,5.61,12.7,1.35,1.35,0,0,1-.61,1C139.28,256.88,136.81,255.56,137,257.53Z"/><path class="cls-134" d="M131.55,247.42c1.3-.66,1.06.66,1.32,1.13.67,1.21,1.18,2.52,1.75,3.79a7.71,7.71,0,0,1-.31,4.17c-.71,2.22-1.72,4.35-2,6.7a1.8,1.8,0,0,1-1.1,1.56.56.56,0,0,1-.67-.34,5.15,5.15,0,0,1-1.7-6.05C129.94,254.77,131.24,251.22,131.55,247.42Z"/><path class="cls-135" d="M89.89,268.17a1.68,1.68,0,0,1,1.17-1.48c4.41-1.54,7.4-4.75,10.12-8.36.57-.75.88-2.28,2.47-1.81L102,261c-3.37,3.83-6.62,7.79-11,10.6Z"/><path class="cls-136" d="M88,262.05c3.43-.34,5.45-2.86,6.55-5.49a30.67,30.67,0,0,1,9-12.2c.52-.43,1-.77,0-1.13a4.26,4.26,0,0,1,2.63-.42c.58,1.32-.62,1.76-1.25,2.44-3.09,3.28-7.11,5.93-8.34,10.56-.93,3.51-3.41,5.32-6.19,7a2.33,2.33,0,0,0-1.48,2.35C87.46,264.45,88.05,263.14,88,262.05Z"/><path class="cls-137" d="M130.56,264.43a.56.56,0,0,1,.44.14c1.37.31,1.75,1.39,2,2.58,1.77,3.08,4.22,5.84,4.58,9.59-1.47.54-1.57-.7-2-1.53-1.52-3.84-4.48-6.7-6.78-10C129.53,265.32,130.22,265.3,130.56,264.43Z"/><path class="cls-138" d="M134.77,115.69a7.81,7.81,0,0,1,0,2.27c-.41,1.27,1.46,3.63-1.81,3.6-4.31,0-5.63-.65-5.46-3.76.24-4.34-1.67-7.37-4.71-10.11-6.9-6.21-10.76-13.76-9.77-23.31a26.57,26.57,0,0,1,31.75-23.2c16.94,3.43,26.68,18.89,21.74,34.53a25,25,0,0,1-7.56,11.2c-3.68,3.26-6.57,6.78-6.24,12.07.08,1.37-.91,2-2,2.2a7,7,0,0,1-4.19-.05c-.2-.08-.21-.75-.2-1.15,0-5.49.16-10.92,2.06-16.23.72-2,1-4.06,2.83-5.46a1.53,1.53,0,0,0,.41-2.07c-.66-.87-1.56-.4-2.23.13s-1.49.81-2.11-.12-2-1.79-1.22-3.29a10.16,10.16,0,0,1,.73-1c.76-1.06,1.06-2.19,0-3.19a2.24,2.24,0,0,0-3.23,0c-1.47,1.46-3.19,1.47-5,1.43-1.28,0-1.69.75-1.4,1.81.79,2.89-1.61,3.78-3.16,5.17-.85.76-1.09-.36-1.52-.74a1.8,1.8,0,0,0-2.51-.16c-.84.68-.57,1.5,0,2.25C133.49,103.64,134.74,109.49,134.77,115.69Z"/><path class="cls-139" d="M141.33,101.52c.64,0,1,0,1.31,0,3.37.23,3.74.67,2.47,3.69-1.89,4.52-1.65,9.26-1.64,14,0,1.61-.18,2.68-2.15,2.32-1.48-.27-3.65,1-3.59-2.23.11-5.14.23-10.34-2.22-15.12-.54-1.06-.14-1.49.89-1.82A18.69,18.69,0,0,1,141.33,101.52Z"/><path class="cls-140" d="M133.4,100.14l7.78-7.38c.61-.57,1.09-.88,1.77.12,1.28,1.86,2.75,3.59,4.15,5.36.71.89,0,1.43-.61,1.25C142.05,98.13,137.79,98.9,133.4,100.14Z"/><path class="cls-141" d="M145.8,90.84c-.11.55-.15,1.24-.93,1.12-.56-.08-.64-.68-.65-1.17s.2-1.18,1-1.1S145.72,90.38,145.8,90.84Z"/><path class="cls-142" d="M184.2,177c2.06,1.89,1.81,4.87-.58,8A22.68,22.68,0,0,0,184.2,177Z"/><path class="cls-143" d="M102.27,177.4c-.13,3-1,5.5-.11,8C100.22,183,100.21,180.23,102.27,177.4Z"/><path class="cls-144" d="M147.67,252.41a10,10,0,0,1-.52,5.38c-.87,3-2.28,5.94-1.19,9.26a2.18,2.18,0,0,1-.92,2.2c-2.08-3.46-2.67-7.45-4-11.18a1.14,1.14,0,0,1-.14-1c.67-1.93,4.62-4.64,6.79-4.67Z"/><path class="cls-145" d="M149.22,291.44q-2.34-7.87-4.66-15.75c.39-1,.77-2,1.82-.45.5.74,1.1,1.42,1.65,2.13.79,1.38,1.56,2.76,2.35,4.13C152.47,285.11,151.55,288.35,149.22,291.44Z"/><path class="cls-119" d="M147.7,252.44c-2.4,1.66-4.94,3.16-6.65,5.63-.43-.9-1.35-1.51-1.51-2.58l0-1a27,27,0,0,1,4.29-5.24c.68-.59,1.27-1.37,2.32-1.32C148.59,248.77,147.84,250.71,147.7,252.44Z"/><path class="cls-146" d="M146.17,247.9c-1.67,2.39-4.21,4-5.72,6.57-.07.13-.58,0-.89,0a101.4,101.4,0,0,0-4.41-10.29,4.19,4.19,0,0,1-.61-2.37c2.42-.93,3.62-3.27,5.54-4.79.59-.46.95-1.5,2-.75a41.71,41.71,0,0,0,3.53,6.63c.36,1,.73,1.91,1.1,2.86Z"/><path class="cls-147" d="M203.41,261.56c-.32-4-.36-8-3.2-11.3,3.77,2.9,4.36,7,4.25,11.28Z"/><path class="cls-148" d="M130.33,281.93c1.21-2,.35-4.26.65-6.38.13-.86-.2-2.16.93-2.28,1-.11.78,1.28,1.21,1.91,1.84,2.73-.86,5.18-.37,7.71.36,1.85-1,.54-1.32,1A3.48,3.48,0,0,1,130.33,281.93Z"/><path class="cls-149" d="M168.42,241.32c-1.42.38-.91,1.16-.33,1.85a5.89,5.89,0,0,1,1.42,2.63c-2.94-2.51-4.61-6-7.26-9.26l2.16.69C165.73,238.61,167.68,239.38,168.42,241.32Z"/><path class="cls-150" d="M133,267.15l-2-2.58c.56-4.27,2.41-8.16,3.62-12.23a13.41,13.41,0,0,1,1.92,4.66c-1.48,1.83-1.29,4.2-2,6.29A12.16,12.16,0,0,1,133,267.15Z"/><path class="cls-151" d="M135.55,275.21l2,1.53c.34,1.91.83,3.83-.32,5.85Z"/><path class="cls-152" d="M146.66,66.41c-13.28-.61-24.5,6-27.79,20.3-1.5-2.41-1.32-4.79-.76-7.12,2.38-10,13.56-16.68,24-14.45C143.63,65.47,145.13,66,146.66,66.41Z"/></svg>